<svg width="251" height="553" viewBox="0 0 251 553" fill="none" xmlns="http://www.w3.org/2000/svg">
<circle cx="4.39021" cy="4.12556" r="4.12556" fill="#29AAF3"/>
<circle cx="64.8975" cy="4.12556" r="4.12556" fill="#29AAF3"/>
<circle cx="125.406" cy="4.12556" r="4.12556" fill="#29AAF3"/>
<circle cx="185.914" cy="4.12556" r="4.12556" fill="#29AAF3"/>
<circle cx="246.422" cy="4.12556" r="4.12556" fill="#29AAF3"/>
<circle cx="4.38972" cy="64.6339" r="4.12556" fill="#29AAF3"/>
<circle cx="64.8975" cy="64.6339" r="4.12556" fill="#29AAF3"/>
<circle cx="125.406" cy="64.6339" r="4.12556" fill="#29AAF3"/>
<circle cx="185.914" cy="64.6339" r="4.12556" fill="#29AAF3"/>
<circle cx="246.422" cy="64.6339" r="4.12556" fill="#29AAF3"/>
<circle cx="4.38972" cy="125.142" r="4.12556" fill="#29AAF3"/>
<circle cx="64.8975" cy="125.142" r="4.12556" fill="#29AAF3"/>
<circle cx="125.406" cy="125.142" r="4.12556" fill="#29AAF3"/>
<circle cx="185.914" cy="125.142" r="4.12556" fill="#29AAF3"/>
<circle cx="246.422" cy="125.142" r="4.12556" fill="#29AAF3"/>
<circle cx="4.38972" cy="185.65" r="4.12556" fill="#29AAF3"/>
<circle cx="64.8975" cy="185.65" r="4.12556" fill="#29AAF3"/>
<circle cx="125.406" cy="185.65" r="4.12556" fill="#29AAF3"/>
<circle cx="185.914" cy="185.65" r="4.12556" fill="#29AAF3"/>
<circle cx="246.422" cy="185.65" r="4.12556" fill="#29AAF3"/>
<circle cx="4.38972" cy="246.158" r="4.12556" fill="#29AAF3"/>
<circle cx="64.8975" cy="246.158" r="4.12556" fill="#29AAF3"/>
<circle cx="125.406" cy="246.158" r="4.12556" fill="#29AAF3"/>
<circle cx="185.914" cy="246.158" r="4.12556" fill="#29AAF3"/>
<circle cx="246.422" cy="246.158" r="4.12556" fill="#29AAF3"/>
<circle cx="4.38972" cy="306.667" r="4.12556" fill="#29AAF3"/>
<circle cx="64.8975" cy="306.667" r="4.12556" fill="#29AAF3"/>
<circle cx="125.406" cy="306.667" r="4.12556" fill="#29AAF3"/>
<circle cx="185.914" cy="306.667" r="4.12556" fill="#29AAF3"/>
<circle cx="246.422" cy="306.667" r="4.12556" fill="#29AAF3"/>
<circle cx="4.38972" cy="367.175" r="4.12556" fill="#29AAF3"/>
<circle cx="64.8975" cy="367.175" r="4.12556" fill="#29AAF3"/>
<circle cx="125.406" cy="367.175" r="4.12556" fill="#29AAF3"/>
<circle cx="185.914" cy="367.175" r="4.12556" fill="#29AAF3"/>
<circle cx="246.422" cy="367.175" r="4.12556" fill="#29AAF3"/>
<circle cx="4.38972" cy="427.683" r="4.12556" fill="#29AAF3"/>
<circle cx="64.8975" cy="427.683" r="4.12556" fill="#29AAF3"/>
<circle cx="125.406" cy="427.683" r="4.12556" fill="#29AAF3"/>
<circle cx="185.914" cy="427.683" r="4.12556" fill="#29AAF3"/>
<circle cx="246.422" cy="427.683" r="4.12556" fill="#29AAF3"/>
<circle cx="4.38972" cy="488.191" r="4.12556" fill="#29AAF3"/>
<circle cx="64.8975" cy="488.191" r="4.12556" fill="#29AAF3"/>
<circle cx="125.406" cy="488.191" r="4.12556" fill="#29AAF3"/>
<circle cx="185.914" cy="488.191" r="4.12556" fill="#29AAF3"/>
<circle cx="246.422" cy="488.191" r="4.12556" fill="#29AAF3"/>
<circle cx="4.38972" cy="548.699" r="4.12556" fill="#29AAF3"/>
<circle cx="64.8975" cy="548.699" r="4.12556" fill="#29AAF3"/>
<circle cx="125.406" cy="548.699" r="4.12556" fill="#29AAF3"/>
<circle cx="185.914" cy="548.699" r="4.12556" fill="#29AAF3"/>
<circle cx="246.422" cy="548.699" r="4.12556" fill="#29AAF3"/>
</svg>
