<svg width="553" height="251" viewBox="0 0 553 251" fill="none" xmlns="http://www.w3.org/2000/svg">
<circle cx="548.702" cy="4.21467" r="4.12556" transform="rotate(90 548.702 4.21467)" fill="#29AAF3"/>
<circle cx="548.702" cy="64.7227" r="4.12556" transform="rotate(90 548.702 64.7227)" fill="#29AAF3"/>
<circle cx="548.702" cy="125.231" r="4.12556" transform="rotate(90 548.702 125.231)" fill="#29AAF3"/>
<circle cx="548.702" cy="185.739" r="4.12556" transform="rotate(90 548.702 185.739)" fill="#29AAF3"/>
<circle cx="548.702" cy="246.247" r="4.12556" transform="rotate(90 548.702 246.247)" fill="#29AAF3"/>
<circle cx="488.194" cy="4.21443" r="4.12556" transform="rotate(90 488.194 4.21443)" fill="#29AAF3"/>
<circle cx="488.194" cy="64.7227" r="4.12556" transform="rotate(90 488.194 64.7227)" fill="#29AAF3"/>
<circle cx="488.194" cy="125.231" r="4.12556" transform="rotate(90 488.194 125.231)" fill="#29AAF3"/>
<circle cx="488.194" cy="185.739" r="4.12556" transform="rotate(90 488.194 185.739)" fill="#29AAF3"/>
<circle cx="488.194" cy="246.247" r="4.12556" transform="rotate(90 488.194 246.247)" fill="#29AAF3"/>
<circle cx="427.685" cy="4.21443" r="4.12556" transform="rotate(90 427.685 4.21443)" fill="#29AAF3"/>
<circle cx="427.685" cy="64.7227" r="4.12556" transform="rotate(90 427.685 64.7227)" fill="#29AAF3"/>
<circle cx="427.685" cy="125.231" r="4.12556" transform="rotate(90 427.685 125.231)" fill="#29AAF3"/>
<circle cx="427.685" cy="185.739" r="4.12556" transform="rotate(90 427.685 185.739)" fill="#29AAF3"/>
<circle cx="427.685" cy="246.247" r="4.12556" transform="rotate(90 427.685 246.247)" fill="#29AAF3"/>
<circle cx="367.177" cy="4.21443" r="4.12556" transform="rotate(90 367.177 4.21443)" fill="#29AAF3"/>
<circle cx="367.177" cy="64.7227" r="4.12556" transform="rotate(90 367.177 64.7227)" fill="#29AAF3"/>
<circle cx="367.177" cy="125.231" r="4.12556" transform="rotate(90 367.177 125.231)" fill="#29AAF3"/>
<circle cx="367.177" cy="185.739" r="4.12556" transform="rotate(90 367.177 185.739)" fill="#29AAF3"/>
<circle cx="367.177" cy="246.247" r="4.12556" transform="rotate(90 367.177 246.247)" fill="#29AAF3"/>
<circle cx="306.668" cy="4.21443" r="4.12556" transform="rotate(90 306.668 4.21443)" fill="#29AAF3"/>
<circle cx="306.669" cy="64.7227" r="4.12556" transform="rotate(90 306.669 64.7227)" fill="#29AAF3"/>
<circle cx="306.669" cy="125.231" r="4.12556" transform="rotate(90 306.669 125.231)" fill="#29AAF3"/>
<circle cx="306.669" cy="185.739" r="4.12556" transform="rotate(90 306.669 185.739)" fill="#29AAF3"/>
<circle cx="306.669" cy="246.247" r="4.12556" transform="rotate(90 306.669 246.247)" fill="#29AAF3"/>
<circle cx="246.161" cy="4.21443" r="4.12556" transform="rotate(90 246.161 4.21443)" fill="#29AAF3"/>
<circle cx="246.161" cy="64.7227" r="4.12556" transform="rotate(90 246.161 64.7227)" fill="#29AAF3"/>
<circle cx="246.161" cy="125.231" r="4.12556" transform="rotate(90 246.161 125.231)" fill="#29AAF3"/>
<circle cx="246.161" cy="185.739" r="4.12556" transform="rotate(90 246.161 185.739)" fill="#29AAF3"/>
<circle cx="246.161" cy="246.247" r="4.12556" transform="rotate(90 246.161 246.247)" fill="#29AAF3"/>
<circle cx="185.652" cy="4.21443" r="4.12556" transform="rotate(90 185.652 4.21443)" fill="#29AAF3"/>
<circle cx="185.652" cy="64.7227" r="4.12556" transform="rotate(90 185.652 64.7227)" fill="#29AAF3"/>
<circle cx="185.652" cy="125.231" r="4.12556" transform="rotate(90 185.652 125.231)" fill="#29AAF3"/>
<circle cx="185.652" cy="185.739" r="4.12556" transform="rotate(90 185.652 185.739)" fill="#29AAF3"/>
<circle cx="185.652" cy="246.247" r="4.12556" transform="rotate(90 185.652 246.247)" fill="#29AAF3"/>
<circle cx="125.144" cy="4.21443" r="4.12556" transform="rotate(90 125.144 4.21443)" fill="#29AAF3"/>
<circle cx="125.144" cy="64.7227" r="4.12556" transform="rotate(90 125.144 64.7227)" fill="#29AAF3"/>
<circle cx="125.144" cy="125.231" r="4.12556" transform="rotate(90 125.144 125.231)" fill="#29AAF3"/>
<circle cx="125.144" cy="185.739" r="4.12556" transform="rotate(90 125.144 185.739)" fill="#29AAF3"/>
<circle cx="125.144" cy="246.247" r="4.12556" transform="rotate(90 125.144 246.247)" fill="#29AAF3"/>
<circle cx="64.6357" cy="4.21443" r="4.12556" transform="rotate(90 64.6357 4.21443)" fill="#29AAF3"/>
<circle cx="64.6357" cy="64.7227" r="4.12556" transform="rotate(90 64.6357 64.7227)" fill="#29AAF3"/>
<circle cx="64.6357" cy="125.231" r="4.12556" transform="rotate(90 64.6357 125.231)" fill="#29AAF3"/>
<circle cx="64.6357" cy="185.739" r="4.12556" transform="rotate(90 64.6357 185.739)" fill="#29AAF3"/>
<circle cx="64.6357" cy="246.247" r="4.12556" transform="rotate(90 64.6357 246.247)" fill="#29AAF3"/>
<circle cx="4.12761" cy="4.21443" r="4.12556" transform="rotate(90 4.12761 4.21443)" fill="#29AAF3"/>
<circle cx="4.12761" cy="64.7227" r="4.12556" transform="rotate(90 4.12761 64.7227)" fill="#29AAF3"/>
<circle cx="4.12761" cy="125.231" r="4.12556" transform="rotate(90 4.12761 125.231)" fill="#29AAF3"/>
<circle cx="4.12761" cy="185.739" r="4.12556" transform="rotate(90 4.12761 185.739)" fill="#29AAF3"/>
<circle cx="4.12761" cy="246.247" r="4.12556" transform="rotate(90 4.12761 246.247)" fill="#29AAF3"/>
</svg>
