<svg width="251" height="554" viewBox="0 0 251 554" fill="none" xmlns="http://www.w3.org/2000/svg">
<circle cx="4.35896" cy="4.44441" r="4.12556" fill="#29AAF3"/>
<circle cx="64.8668" cy="4.44441" r="4.12556" fill="#29AAF3"/>
<circle cx="125.376" cy="4.44441" r="4.12556" fill="#29AAF3"/>
<circle cx="185.883" cy="4.44441" r="4.12556" fill="#29AAF3"/>
<circle cx="246.392" cy="4.44441" r="4.12556" fill="#29AAF3"/>
<circle cx="4.35896" cy="64.9527" r="4.12556" fill="#29AAF3"/>
<circle cx="64.8668" cy="64.9527" r="4.12556" fill="#29AAF3"/>
<circle cx="125.376" cy="64.9527" r="4.12556" fill="#29AAF3"/>
<circle cx="185.883" cy="64.9527" r="4.12556" fill="#29AAF3"/>
<circle cx="246.392" cy="64.9527" r="4.12556" fill="#29AAF3"/>
<circle cx="4.35896" cy="125.461" r="4.12556" fill="#29AAF3"/>
<circle cx="64.8668" cy="125.461" r="4.12556" fill="#29AAF3"/>
<circle cx="125.376" cy="125.461" r="4.12556" fill="#29AAF3"/>
<circle cx="185.883" cy="125.461" r="4.12556" fill="#29AAF3"/>
<circle cx="246.392" cy="125.461" r="4.12556" fill="#29AAF3"/>
<circle cx="4.35896" cy="185.969" r="4.12556" fill="#29AAF3"/>
<circle cx="64.8668" cy="185.969" r="4.12556" fill="#29AAF3"/>
<circle cx="125.376" cy="185.969" r="4.12556" fill="#29AAF3"/>
<circle cx="185.883" cy="185.969" r="4.12556" fill="#29AAF3"/>
<circle cx="246.392" cy="185.969" r="4.12556" fill="#29AAF3"/>
<circle cx="4.35896" cy="246.477" r="4.12556" fill="#29AAF3"/>
<circle cx="64.8668" cy="246.477" r="4.12556" fill="#29AAF3"/>
<circle cx="125.376" cy="246.477" r="4.12556" fill="#29AAF3"/>
<circle cx="185.883" cy="246.477" r="4.12556" fill="#29AAF3"/>
<circle cx="246.392" cy="246.477" r="4.12556" fill="#29AAF3"/>
<circle cx="4.35896" cy="306.985" r="4.12556" fill="#29AAF3"/>
<circle cx="64.8668" cy="306.985" r="4.12556" fill="#29AAF3"/>
<circle cx="125.376" cy="306.985" r="4.12556" fill="#29AAF3"/>
<circle cx="185.883" cy="306.985" r="4.12556" fill="#29AAF3"/>
<circle cx="246.392" cy="306.985" r="4.12556" fill="#29AAF3"/>
<circle cx="4.35896" cy="367.494" r="4.12556" fill="#29AAF3"/>
<circle cx="64.8668" cy="367.494" r="4.12556" fill="#29AAF3"/>
<circle cx="125.376" cy="367.494" r="4.12556" fill="#29AAF3"/>
<circle cx="185.883" cy="367.494" r="4.12556" fill="#29AAF3"/>
<circle cx="246.392" cy="367.494" r="4.12556" fill="#29AAF3"/>
<circle cx="4.35896" cy="428.002" r="4.12556" fill="#29AAF3"/>
<circle cx="64.8668" cy="428.002" r="4.12556" fill="#29AAF3"/>
<circle cx="125.376" cy="428.002" r="4.12556" fill="#29AAF3"/>
<circle cx="185.883" cy="428.002" r="4.12556" fill="#29AAF3"/>
<circle cx="246.392" cy="428.002" r="4.12556" fill="#29AAF3"/>
<circle cx="4.35896" cy="488.51" r="4.12556" fill="#29AAF3"/>
<circle cx="64.8668" cy="488.51" r="4.12556" fill="#29AAF3"/>
<circle cx="125.376" cy="488.51" r="4.12556" fill="#29AAF3"/>
<circle cx="185.883" cy="488.51" r="4.12556" fill="#29AAF3"/>
<circle cx="246.392" cy="488.51" r="4.12556" fill="#29AAF3"/>
<circle cx="4.35896" cy="549.018" r="4.12556" fill="#29AAF3"/>
<circle cx="64.8668" cy="549.018" r="4.12556" fill="#29AAF3"/>
<circle cx="125.376" cy="549.018" r="4.12556" fill="#29AAF3"/>
<circle cx="185.883" cy="549.018" r="4.12556" fill="#29AAF3"/>
<circle cx="246.392" cy="549.018" r="4.12556" fill="#29AAF3"/>
</svg>
