<svg width="836" height="525" viewBox="0 0 836 525" fill="none" xmlns="http://www.w3.org/2000/svg">
<rect x="109" y="143" width="618" height="331" rx="20" fill="white"/>
<g filter="url(#filter0_d_24_7)">
<rect x="79" y="91" width="678" height="363" rx="20" fill="white"/>
</g>
<g filter="url(#filter1_d_24_7)">
<rect x="53" y="35" width="730" height="391" rx="20" fill="white"/>
</g>
<path d="M303.121 220.412C313.018 210.059 320.795 200.412 326.45 191.471C332.106 182.529 334.934 175.235 334.934 169.588C334.934 166.294 333.755 163.235 331.399 160.412C329.514 157.588 326.45 154.529 322.208 151.235C315.61 146.059 310.426 140.647 306.656 135C302.885 129.353 301 121.824 301 112.412C301 97.8235 305.477 86.0588 314.432 77.1176C323.387 67.7059 334.698 63 348.366 63C362.976 63 374.758 67.7059 383.713 77.1176C393.139 86.0588 397.852 97.8235 397.852 112.412C397.852 130.765 390.076 151 374.523 173.118C359.441 194.765 339.175 214.059 313.725 231L303.121 220.412ZM440.269 220.412C450.166 210.059 457.943 200.412 463.598 191.471C469.254 182.529 472.082 175.235 472.082 169.588C472.082 166.294 470.903 163.235 468.547 160.412C466.662 157.588 463.598 154.529 459.356 151.235C452.758 146.059 447.574 140.647 443.804 135C440.033 129.353 438.148 121.824 438.148 112.412C438.148 97.8235 442.625 86.0588 451.58 77.1176C460.535 67.7059 471.846 63 485.514 63C500.124 63 511.906 67.7059 520.861 77.1176C530.287 86.0588 535 97.8235 535 112.412C535 130.765 527.224 151 511.671 173.118C496.589 194.765 476.323 214.059 450.873 231L440.269 220.412Z" fill="#EDF0FD"/>
<path d="M154.269 105.582L155.231 101.708H153.593L152.371 105.348C152.007 106.31 151.903 106.7 151.903 107.194C151.903 108.208 152.631 108.962 153.645 108.962C154.607 108.962 155.361 108.234 155.361 107.194C155.361 106.388 154.945 105.816 154.269 105.582ZM159.183 105.582L160.145 101.708H158.507L157.285 105.348C156.921 106.31 156.817 106.7 156.817 107.194C156.817 108.208 157.545 108.962 158.559 108.962C159.521 108.962 160.275 108.234 160.275 107.194C160.275 106.388 159.859 105.816 159.183 105.582ZM168.579 121H171.153V105.062H177.393V102.8H162.339V105.062H168.579V121ZM187.218 107.09C185.112 107.09 183.396 107.844 182.356 109.17V101.708H179.86V121H182.356V113.902C182.356 110.912 184.072 109.326 186.724 109.326C189.09 109.326 190.442 110.652 190.442 113.356V121H192.938V113.07C192.938 109.014 190.572 107.09 187.218 107.09ZM210.088 114.188C210.088 109.95 207.254 107.09 203.276 107.09C199.298 107.09 196.36 110.028 196.36 114.11C196.36 118.218 199.324 121.156 203.77 121.156C206.058 121.156 207.956 120.376 209.204 118.92L207.826 117.308C206.812 118.426 205.46 118.972 203.848 118.972C201.118 118.972 199.168 117.36 198.856 114.942H210.036C210.062 114.708 210.088 114.396 210.088 114.188ZM203.276 109.196C205.694 109.196 207.436 110.834 207.696 113.148H198.856C199.116 110.808 200.884 109.196 203.276 109.196ZM226.542 121.156C229.012 121.156 231.066 120.116 232.158 118.192L230.26 116.996C229.376 118.348 228.024 118.972 226.516 118.972C223.812 118.972 221.784 117.1 221.784 114.11C221.784 111.172 223.812 109.274 226.516 109.274C228.024 109.274 229.376 109.898 230.26 111.25L232.158 110.028C231.066 108.104 229.012 107.09 226.542 107.09C222.304 107.09 219.262 110.002 219.262 114.11C219.262 118.218 222.304 121.156 226.542 121.156ZM241.089 121.156C245.223 121.156 248.239 118.218 248.239 114.11C248.239 110.002 245.223 107.09 241.089 107.09C236.955 107.09 233.913 110.002 233.913 114.11C233.913 118.218 236.955 121.156 241.089 121.156ZM241.089 118.972C238.437 118.972 236.435 117.048 236.435 114.11C236.435 111.172 238.437 109.274 241.089 109.274C243.741 109.274 245.717 111.172 245.717 114.11C245.717 117.048 243.741 118.972 241.089 118.972ZM259.049 107.09C256.865 107.09 255.097 107.896 254.083 109.3V107.22H251.691V121H254.187V113.902C254.187 110.912 255.903 109.326 258.555 109.326C260.921 109.326 262.273 110.652 262.273 113.356V121H264.769V113.07C264.769 109.014 262.403 107.09 259.049 107.09ZM273.34 121.156C277.006 121.156 279.294 119.57 279.294 117.074C279.294 111.718 270.558 114.37 270.558 111.12C270.558 110.028 271.624 109.222 273.808 109.222C275.16 109.222 276.538 109.508 277.786 110.314L278.852 108.338C277.656 107.558 275.628 107.09 273.834 107.09C270.298 107.09 268.088 108.754 268.088 111.224C268.088 116.71 276.798 114.032 276.798 117.126C276.798 118.296 275.836 118.998 273.522 118.998C271.728 118.998 269.856 118.4 268.686 117.568L267.646 119.544C268.79 120.454 271.052 121.156 273.34 121.156ZM292.761 107.22V114.344C292.761 117.308 291.097 118.92 288.497 118.92C286.131 118.92 284.779 117.568 284.779 114.864V107.22H282.283V115.15C282.283 119.206 284.649 121.156 288.211 121.156C290.161 121.156 291.877 120.35 292.891 118.92V121H295.257V107.22H292.761ZM300.009 121H302.505V101.708H300.009V121ZM314.569 118.4C314.049 118.816 313.347 119.05 312.619 119.05C311.241 119.05 310.461 118.218 310.461 116.736V109.274H314.413V107.22H310.461V104.204H307.965V107.22H305.625V109.274H307.965V116.84C307.965 119.622 309.551 121.156 312.333 121.156C313.451 121.156 314.595 120.844 315.349 120.194L314.569 118.4ZM323.384 107.09C321.174 107.09 319.12 107.714 317.69 108.858L318.73 110.73C319.796 109.82 321.46 109.248 323.098 109.248C325.568 109.248 326.79 110.47 326.79 112.576V113.07H322.838C318.73 113.07 317.3 114.89 317.3 117.1C317.3 119.492 319.276 121.156 322.396 121.156C324.554 121.156 326.088 120.428 326.92 119.18V121H329.286V112.68C329.286 108.91 327.154 107.09 323.384 107.09ZM322.812 119.232C320.914 119.232 319.77 118.374 319.77 116.996C319.77 115.826 320.472 114.864 322.942 114.864H326.79V116.788C326.166 118.374 324.684 119.232 322.812 119.232ZM341.263 107.09C339.079 107.09 337.311 107.896 336.297 109.3V107.22H333.905V121H336.401V113.902C336.401 110.912 338.117 109.326 340.769 109.326C343.135 109.326 344.487 110.652 344.487 113.356V121H346.983V113.07C346.983 109.014 344.617 107.09 341.263 107.09ZM358.571 118.4C358.051 118.816 357.349 119.05 356.621 119.05C355.243 119.05 354.463 118.218 354.463 116.736V109.274H358.415V107.22H354.463V104.204H351.967V107.22H349.627V109.274H351.967V116.84C351.967 119.622 353.553 121.156 356.335 121.156C357.453 121.156 358.597 120.844 359.351 120.194L358.571 118.4ZM366.32 121.156C369.986 121.156 372.274 119.57 372.274 117.074C372.274 111.718 363.538 114.37 363.538 111.12C363.538 110.028 364.604 109.222 366.788 109.222C368.14 109.222 369.518 109.508 370.766 110.314L371.832 108.338C370.636 107.558 368.608 107.09 366.814 107.09C363.278 107.09 361.068 108.754 361.068 111.224C361.068 116.71 369.778 114.032 369.778 117.126C369.778 118.296 368.816 118.998 366.502 118.998C364.708 118.998 362.836 118.4 361.666 117.568L360.626 119.544C361.77 120.454 364.032 121.156 366.32 121.156ZM389.344 118.4C388.824 118.816 388.122 119.05 387.394 119.05C386.016 119.05 385.236 118.218 385.236 116.736V109.274H389.188V107.22H385.236V104.204H382.74V107.22H380.4V109.274H382.74V116.84C382.74 119.622 384.326 121.156 387.108 121.156C388.226 121.156 389.37 120.844 390.124 120.194L389.344 118.4ZM400.5 107.09C398.394 107.09 396.678 107.844 395.638 109.17V101.708H393.142V121H395.638V113.902C395.638 110.912 397.354 109.326 400.006 109.326C402.372 109.326 403.724 110.652 403.724 113.356V121H406.22V113.07C406.22 109.014 403.854 107.09 400.5 107.09ZM415.857 107.09C413.647 107.09 411.593 107.714 410.163 108.858L411.203 110.73C412.269 109.82 413.933 109.248 415.571 109.248C418.041 109.248 419.263 110.47 419.263 112.576V113.07H415.311C411.203 113.07 409.773 114.89 409.773 117.1C409.773 119.492 411.749 121.156 414.869 121.156C417.027 121.156 418.561 120.428 419.393 119.18V121H421.759V112.68C421.759 108.91 419.627 107.09 415.857 107.09ZM415.285 119.232C413.387 119.232 412.243 118.374 412.243 116.996C412.243 115.826 412.945 114.864 415.415 114.864H419.263V116.788C418.639 118.374 417.157 119.232 415.285 119.232ZM433.346 118.4C432.826 118.816 432.124 119.05 431.396 119.05C430.018 119.05 429.238 118.218 429.238 116.736V109.274H433.19V107.22H429.238V104.204H426.742V107.22H424.402V109.274H426.742V116.84C426.742 119.622 428.328 121.156 431.11 121.156C432.228 121.156 433.372 120.844 434.126 120.194L433.346 118.4ZM446.518 109.534V107.22H444.126V121H446.622V114.136C446.622 111.12 448.286 109.482 450.964 109.482C451.146 109.482 451.328 109.482 451.536 109.508V107.09C449.118 107.09 447.402 107.922 446.518 109.534ZM466.939 114.188C466.939 109.95 464.105 107.09 460.127 107.09C456.149 107.09 453.211 110.028 453.211 114.11C453.211 118.218 456.175 121.156 460.621 121.156C462.909 121.156 464.807 120.376 466.055 118.92L464.677 117.308C463.663 118.426 462.311 118.972 460.699 118.972C457.969 118.972 456.019 117.36 455.707 114.942H466.887C466.913 114.708 466.939 114.396 466.939 114.188ZM460.127 109.196C462.545 109.196 464.287 110.834 464.547 113.148H455.707C455.967 110.808 457.735 109.196 460.127 109.196ZM475.043 107.09C472.833 107.09 470.779 107.714 469.349 108.858L470.389 110.73C471.455 109.82 473.119 109.248 474.757 109.248C477.227 109.248 478.449 110.47 478.449 112.576V113.07H474.497C470.389 113.07 468.959 114.89 468.959 117.1C468.959 119.492 470.935 121.156 474.055 121.156C476.213 121.156 477.747 120.428 478.579 119.18V121H480.945V112.68C480.945 108.91 478.813 107.09 475.043 107.09ZM474.471 119.232C472.573 119.232 471.429 118.374 471.429 116.996C471.429 115.826 472.131 114.864 474.601 114.864H478.449V116.788C477.825 118.374 476.343 119.232 474.471 119.232ZM491.646 121.156C494.116 121.156 496.17 120.116 497.262 118.192L495.364 116.996C494.48 118.348 493.128 118.972 491.62 118.972C488.916 118.972 486.888 117.1 486.888 114.11C486.888 111.172 488.916 109.274 491.62 109.274C493.128 109.274 494.48 109.898 495.364 111.25L497.262 110.028C496.17 108.104 494.116 107.09 491.646 107.09C487.408 107.09 484.366 110.002 484.366 114.11C484.366 118.218 487.408 121.156 491.646 121.156ZM507.674 107.09C505.568 107.09 503.852 107.844 502.812 109.17V101.708H500.316V121H502.812V113.902C502.812 110.912 504.528 109.326 507.18 109.326C509.546 109.326 510.898 110.652 510.898 113.356V121H513.394V113.07C513.394 109.014 511.028 107.09 507.674 107.09ZM530.543 114.188C530.543 109.95 527.709 107.09 523.731 107.09C519.753 107.09 516.815 110.028 516.815 114.11C516.815 118.218 519.779 121.156 524.225 121.156C526.513 121.156 528.411 120.376 529.659 118.92L528.281 117.308C527.267 118.426 525.915 118.972 524.303 118.972C521.573 118.972 519.623 117.36 519.311 114.942H530.491C530.517 114.708 530.543 114.396 530.543 114.188ZM523.731 109.196C526.149 109.196 527.891 110.834 528.151 113.148H519.311C519.571 110.808 521.339 109.196 523.731 109.196ZM544.513 101.708V109.3C543.369 107.818 541.653 107.09 539.703 107.09C535.673 107.09 532.735 109.898 532.735 114.11C532.735 118.322 535.673 121.156 539.703 121.156C541.731 121.156 543.499 120.376 544.617 118.816V121H547.009V101.708H544.513ZM539.911 118.972C537.259 118.972 535.257 117.048 535.257 114.11C535.257 111.172 537.259 109.274 539.911 109.274C542.537 109.274 544.539 111.172 544.539 114.11C544.539 117.048 542.537 118.972 539.911 118.972ZM564.616 121.156C568.75 121.156 571.766 118.218 571.766 114.11C571.766 110.002 568.75 107.09 564.616 107.09C560.482 107.09 557.44 110.002 557.44 114.11C557.44 118.218 560.482 121.156 564.616 121.156ZM564.616 118.972C561.964 118.972 559.962 117.048 559.962 114.11C559.962 111.172 561.964 109.274 564.616 109.274C567.268 109.274 569.244 111.172 569.244 114.11C569.244 117.048 567.268 118.972 564.616 118.972ZM585.566 107.22V114.344C585.566 117.308 583.902 118.92 581.302 118.92C578.936 118.92 577.584 117.568 577.584 114.864V107.22H575.088V115.15C575.088 119.206 577.454 121.156 581.016 121.156C582.966 121.156 584.682 120.35 585.696 118.92V121H588.062V107.22H585.566ZM599.782 118.4C599.262 118.816 598.56 119.05 597.832 119.05C596.454 119.05 595.674 118.218 595.674 116.736V109.274H599.626V107.22H595.674V104.204H593.178V107.22H590.838V109.274H593.178V116.84C593.178 119.622 594.764 121.156 597.546 121.156C598.664 121.156 599.808 120.844 600.562 120.194L599.782 118.4ZM617.53 118.4C617.01 118.816 616.308 119.05 615.58 119.05C614.202 119.05 613.422 118.218 613.422 116.736V109.274H617.374V107.22H613.422V104.204H610.926V107.22H608.586V109.274H610.926V116.84C610.926 119.622 612.512 121.156 615.294 121.156C616.412 121.156 617.556 120.844 618.31 120.194L617.53 118.4ZM626.772 121.156C630.906 121.156 633.922 118.218 633.922 114.11C633.922 110.002 630.906 107.09 626.772 107.09C622.638 107.09 619.596 110.002 619.596 114.11C619.596 118.218 622.638 121.156 626.772 121.156ZM626.772 118.972C624.12 118.972 622.118 117.048 622.118 114.11C622.118 111.172 624.12 109.274 626.772 109.274C629.424 109.274 631.4 111.172 631.4 114.11C631.4 117.048 629.424 118.972 626.772 118.972ZM661.595 107.09C659.255 107.09 657.331 108.078 656.291 109.638C655.381 107.922 653.613 107.09 651.507 107.09C649.427 107.09 647.737 107.87 646.749 109.274V107.22H644.357V121H646.853V113.902C646.853 110.912 648.491 109.326 650.987 109.326C653.249 109.326 654.549 110.652 654.549 113.356V121H657.045V113.902C657.045 110.912 658.683 109.326 661.179 109.326C663.441 109.326 664.741 110.652 664.741 113.356V121H667.237V113.07C667.237 109.014 664.949 107.09 661.595 107.09ZM684.359 114.188C684.359 109.95 681.525 107.09 677.547 107.09C673.569 107.09 670.631 110.028 670.631 114.11C670.631 118.218 673.595 121.156 678.041 121.156C680.329 121.156 682.227 120.376 683.475 118.92L682.097 117.308C681.083 118.426 679.731 118.972 678.119 118.972C675.389 118.972 673.439 117.36 673.127 114.942H684.307C684.333 114.708 684.359 114.396 684.359 114.188ZM677.547 109.196C679.965 109.196 681.707 110.834 681.967 113.148H673.127C673.387 110.808 675.155 109.196 677.547 109.196ZM202.335 147.09C200.125 147.09 198.071 147.714 196.641 148.858L197.681 150.73C198.747 149.82 200.411 149.248 202.049 149.248C204.519 149.248 205.741 150.47 205.741 152.576V153.07H201.789C197.681 153.07 196.251 154.89 196.251 157.1C196.251 159.492 198.227 161.156 201.347 161.156C203.505 161.156 205.039 160.428 205.871 159.18V161H208.237V152.68C208.237 148.91 206.105 147.09 202.335 147.09ZM201.763 159.232C199.865 159.232 198.721 158.374 198.721 156.996C198.721 155.826 199.423 154.864 201.893 154.864H205.741V156.788C205.117 158.374 203.635 159.232 201.763 159.232ZM220.162 147.09C218.212 147.09 216.496 147.818 215.352 149.3V141.708H212.856V161H215.248V158.816C216.366 160.376 218.134 161.156 220.162 161.156C224.192 161.156 227.13 158.322 227.13 154.11C227.13 149.898 224.192 147.09 220.162 147.09ZM219.954 158.972C217.328 158.972 215.326 157.048 215.326 154.11C215.326 151.172 217.328 149.274 219.954 149.274C222.606 149.274 224.608 151.172 224.608 154.11C224.608 157.048 222.606 158.972 219.954 158.972ZM236.48 161.156C240.614 161.156 243.63 158.218 243.63 154.11C243.63 150.002 240.614 147.09 236.48 147.09C232.346 147.09 229.304 150.002 229.304 154.11C229.304 158.218 232.346 161.156 236.48 161.156ZM236.48 158.972C233.828 158.972 231.826 157.048 231.826 154.11C231.826 151.172 233.828 149.274 236.48 149.274C239.132 149.274 241.108 151.172 241.108 154.11C241.108 157.048 239.132 158.972 236.48 158.972ZM257.43 147.22V154.344C257.43 157.308 255.766 158.92 253.166 158.92C250.8 158.92 249.448 157.568 249.448 154.864V147.22H246.952V155.15C246.952 159.206 249.318 161.156 252.88 161.156C254.83 161.156 256.546 160.35 257.56 158.92V161H259.926V147.22H257.43ZM271.646 158.4C271.126 158.816 270.424 159.05 269.696 159.05C268.318 159.05 267.538 158.218 267.538 156.736V149.274H271.49V147.22H267.538V144.204H265.042V147.22H262.702V149.274H265.042V156.84C265.042 159.622 266.628 161.156 269.41 161.156C270.528 161.156 271.672 160.844 272.426 160.194L271.646 158.4ZM289.394 158.4C288.874 158.816 288.172 159.05 287.444 159.05C286.066 159.05 285.286 158.218 285.286 156.736V149.274H289.238V147.22H285.286V144.204H282.79V147.22H280.45V149.274H282.79V156.84C282.79 159.622 284.376 161.156 287.158 161.156C288.276 161.156 289.42 160.844 290.174 160.194L289.394 158.4ZM300.55 147.09C298.444 147.09 296.728 147.844 295.688 149.17V141.708H293.192V161H295.688V153.902C295.688 150.912 297.404 149.326 300.056 149.326C302.422 149.326 303.774 150.652 303.774 153.356V161H306.27V153.07C306.27 149.014 303.904 147.09 300.55 147.09ZM323.419 154.188C323.419 149.95 320.585 147.09 316.607 147.09C312.629 147.09 309.691 150.028 309.691 154.11C309.691 158.218 312.655 161.156 317.101 161.156C319.389 161.156 321.287 160.376 322.535 158.92L321.157 157.308C320.143 158.426 318.791 158.972 317.179 158.972C314.449 158.972 312.499 157.36 312.187 154.942H323.367C323.393 154.708 323.419 154.396 323.419 154.188ZM316.607 149.196C319.025 149.196 320.767 150.834 321.027 153.148H312.187C312.447 150.808 314.215 149.196 316.607 149.196ZM336.259 149.534V147.22H333.867V161H336.363V154.136C336.363 151.12 338.027 149.482 340.705 149.482C340.887 149.482 341.069 149.482 341.277 149.508V147.09C338.859 147.09 337.143 147.922 336.259 149.534ZM350.129 161.156C354.263 161.156 357.279 158.218 357.279 154.11C357.279 150.002 354.263 147.09 350.129 147.09C345.995 147.09 342.953 150.002 342.953 154.11C342.953 158.218 345.995 161.156 350.129 161.156ZM350.129 158.972C347.477 158.972 345.475 157.048 345.475 154.11C345.475 151.172 347.477 149.274 350.129 149.274C352.781 149.274 354.757 151.172 354.757 154.11C354.757 157.048 352.781 158.972 350.129 158.972ZM360.731 161H363.227V141.708H360.731V161ZM380.446 154.188C380.446 149.95 377.612 147.09 373.634 147.09C369.656 147.09 366.718 150.028 366.718 154.11C366.718 158.218 369.682 161.156 374.128 161.156C376.416 161.156 378.314 160.376 379.562 158.92L378.184 157.308C377.17 158.426 375.818 158.972 374.206 158.972C371.476 158.972 369.526 157.36 369.214 154.942H380.394C380.42 154.708 380.446 154.396 380.446 154.188ZM373.634 149.196C376.052 149.196 377.794 150.834 378.054 153.148H369.214C369.474 150.808 371.242 149.196 373.634 149.196ZM409.511 147.22L405.403 158.244L401.321 147.22H399.215L395.055 158.192L391.051 147.22H388.685L393.807 161H396.199L400.229 150.548L404.207 161H406.599L411.747 147.22H409.511ZM426.353 154.188C426.353 149.95 423.519 147.09 419.541 147.09C415.563 147.09 412.625 150.028 412.625 154.11C412.625 158.218 415.589 161.156 420.035 161.156C422.323 161.156 424.221 160.376 425.469 158.92L424.091 157.308C423.077 158.426 421.725 158.972 420.113 158.972C417.383 158.972 415.433 157.36 415.121 154.942H426.301C426.327 154.708 426.353 154.396 426.353 154.188ZM419.541 149.196C421.959 149.196 423.701 150.834 423.961 153.148H415.121C415.381 150.808 417.149 149.196 419.541 149.196ZM432.21 149.534V147.22H429.818V161H432.314V154.136C432.314 151.12 433.978 149.482 436.656 149.482C436.838 149.482 437.02 149.482 437.228 149.508V147.09C434.81 147.09 433.094 147.922 432.21 149.534ZM452.632 154.188C452.632 149.95 449.798 147.09 445.82 147.09C441.842 147.09 438.904 150.028 438.904 154.11C438.904 158.218 441.868 161.156 446.314 161.156C448.602 161.156 450.5 160.376 451.748 158.92L450.37 157.308C449.356 158.426 448.004 158.972 446.392 158.972C443.662 158.972 441.712 157.36 441.4 154.942H452.58C452.606 154.708 452.632 154.396 452.632 154.188ZM445.82 149.196C448.238 149.196 449.98 150.834 450.24 153.148H441.4C441.66 150.808 443.428 149.196 445.82 149.196ZM467.032 161.156C470.698 161.156 472.986 159.57 472.986 157.074C472.986 151.718 464.25 154.37 464.25 151.12C464.25 150.028 465.316 149.222 467.5 149.222C468.852 149.222 470.23 149.508 471.478 150.314L472.544 148.338C471.348 147.558 469.32 147.09 467.526 147.09C463.99 147.09 461.78 148.754 461.78 151.224C461.78 156.71 470.49 154.032 470.49 157.126C470.49 158.296 469.528 158.998 467.214 158.998C465.42 158.998 463.548 158.4 462.378 157.568L461.338 159.544C462.482 160.454 464.744 161.156 467.032 161.156ZM486.454 147.22V154.344C486.454 157.308 484.79 158.92 482.19 158.92C479.824 158.92 478.472 157.568 478.472 154.864V147.22H475.976V155.15C475.976 159.206 478.342 161.156 481.904 161.156C483.854 161.156 485.57 160.35 486.584 158.92V161H488.95V147.22H486.454ZM501.007 147.09C498.979 147.09 497.211 147.87 496.093 149.404V147.22H493.701V166.044H496.197V158.92C497.341 160.402 499.057 161.156 501.007 161.156C505.037 161.156 507.975 158.348 507.975 154.11C507.975 149.898 505.037 147.09 501.007 147.09ZM500.799 158.972C498.173 158.972 496.171 157.048 496.171 154.11C496.171 151.198 498.173 149.274 500.799 149.274C503.451 149.274 505.453 151.198 505.453 154.11C505.453 157.048 503.451 158.972 500.799 158.972ZM523.878 154.188C523.878 149.95 521.044 147.09 517.066 147.09C513.088 147.09 510.15 150.028 510.15 154.11C510.15 158.218 513.114 161.156 517.56 161.156C519.848 161.156 521.746 160.376 522.994 158.92L521.616 157.308C520.602 158.426 519.25 158.972 517.638 158.972C514.908 158.972 512.958 157.36 512.646 154.942H523.826C523.852 154.708 523.878 154.396 523.878 154.188ZM517.066 149.196C519.484 149.196 521.226 150.834 521.486 153.148H512.646C512.906 150.808 514.674 149.196 517.066 149.196ZM529.736 149.534V147.22H527.344V161H529.84V154.136C529.84 151.12 531.504 149.482 534.182 149.482C534.364 149.482 534.546 149.482 534.754 149.508V147.09C532.336 147.09 530.62 147.922 529.736 149.534ZM552.348 147.09C550.242 147.09 548.526 147.844 547.486 149.17V141.708H544.99V161H547.486V153.902C547.486 150.912 549.202 149.326 551.854 149.326C554.22 149.326 555.572 150.652 555.572 153.356V161H558.068V153.07C558.068 149.014 555.702 147.09 552.348 147.09ZM575.218 154.188C575.218 149.95 572.384 147.09 568.406 147.09C564.428 147.09 561.49 150.028 561.49 154.11C561.49 158.218 564.454 161.156 568.9 161.156C571.188 161.156 573.086 160.376 574.334 158.92L572.956 157.308C571.942 158.426 570.59 158.972 568.978 158.972C566.248 158.972 564.298 157.36 563.986 154.942H575.166C575.192 154.708 575.218 154.396 575.218 154.188ZM568.406 149.196C570.824 149.196 572.566 150.834 572.826 153.148H563.986C564.246 150.808 566.014 149.196 568.406 149.196ZM578.684 161H581.18V141.708H578.684V161ZM593.251 147.09C591.223 147.09 589.455 147.87 588.337 149.404V147.22H585.945V166.044H588.441V158.92C589.585 160.402 591.301 161.156 593.251 161.156C597.281 161.156 600.219 158.348 600.219 154.11C600.219 149.898 597.281 147.09 593.251 147.09ZM593.043 158.972C590.417 158.972 588.415 157.048 588.415 154.11C588.415 151.198 590.417 149.274 593.043 149.274C595.695 149.274 597.697 151.198 597.697 154.11C597.697 157.048 595.695 158.972 593.043 158.972ZM608.712 143.606C609.44 143.606 610.116 143.866 610.636 144.256L611.39 142.358C610.688 141.812 609.648 141.552 608.582 141.552C605.644 141.552 604.032 143.32 604.032 145.998V147.22H601.692V149.274H604.032V161H606.528V149.274H610.48V147.22H606.476V146.024C606.476 144.438 607.23 143.606 608.712 143.606ZM623.182 147.22V154.344C623.182 157.308 621.518 158.92 618.918 158.92C616.552 158.92 615.2 157.568 615.2 154.864V147.22H612.704V155.15C612.704 159.206 615.07 161.156 618.632 161.156C620.582 161.156 622.298 160.35 623.312 158.92V161H625.678V147.22H623.182ZM630.43 161H632.926V141.708H630.43V161ZM638.316 157.594C637.328 157.594 636.574 158.322 636.574 159.362C636.574 160.142 637.016 160.74 637.666 160.974L636.704 164.848H638.342L639.564 161.234C639.902 160.272 640.006 159.882 640.006 159.362C640.006 158.348 639.304 157.594 638.316 157.594ZM167.903 186.22V193.344C167.903 196.308 166.239 197.92 163.639 197.92C161.273 197.92 159.921 196.568 159.921 193.864V186.22H157.425V194.15C157.425 198.206 159.791 200.156 163.353 200.156C165.303 200.156 167.019 199.35 168.033 197.92V200H170.399V186.22H167.903ZM182.509 186.09C180.325 186.09 178.557 186.896 177.543 188.3V186.22H175.151V200H177.647V192.902C177.647 189.912 179.363 188.326 182.015 188.326C184.381 188.326 185.733 189.652 185.733 192.356V200H188.229V192.07C188.229 188.014 185.863 186.09 182.509 186.09ZM203.428 180.708V188.3C202.284 186.818 200.568 186.09 198.618 186.09C194.588 186.09 191.65 188.898 191.65 193.11C191.65 197.322 194.588 200.156 198.618 200.156C200.646 200.156 202.414 199.376 203.532 197.816V200H205.924V180.708H203.428ZM198.826 197.972C196.174 197.972 194.172 196.048 194.172 193.11C194.172 190.172 196.174 188.274 198.826 188.274C201.452 188.274 203.454 190.172 203.454 193.11C203.454 196.048 201.452 197.972 198.826 197.972ZM223.101 193.188C223.101 188.95 220.267 186.09 216.289 186.09C212.311 186.09 209.373 189.028 209.373 193.11C209.373 197.218 212.337 200.156 216.783 200.156C219.071 200.156 220.969 199.376 222.217 197.92L220.839 196.308C219.825 197.426 218.473 197.972 216.861 197.972C214.131 197.972 212.181 196.36 211.869 193.942H223.049C223.075 193.708 223.101 193.396 223.101 193.188ZM216.289 188.196C218.707 188.196 220.449 189.834 220.709 192.148H211.869C212.129 189.808 213.897 188.196 216.289 188.196ZM228.959 188.534V186.22H226.567V200H229.063V193.136C229.063 190.12 230.727 188.482 233.405 188.482C233.587 188.482 233.769 188.482 233.977 188.508V186.09C231.559 186.09 229.843 186.922 228.959 188.534ZM241.106 200.156C244.772 200.156 247.06 198.57 247.06 196.074C247.06 190.718 238.324 193.37 238.324 190.12C238.324 189.028 239.39 188.222 241.574 188.222C242.926 188.222 244.304 188.508 245.552 189.314L246.618 187.338C245.422 186.558 243.394 186.09 241.6 186.09C238.064 186.09 235.854 187.754 235.854 190.224C235.854 195.71 244.564 193.032 244.564 196.126C244.564 197.296 243.602 197.998 241.288 197.998C239.494 197.998 237.622 197.4 236.452 196.568L235.412 198.544C236.556 199.454 238.818 200.156 241.106 200.156ZM257.148 197.4C256.628 197.816 255.926 198.05 255.198 198.05C253.82 198.05 253.04 197.218 253.04 195.736V188.274H256.992V186.22H253.04V183.204H250.544V186.22H248.204V188.274H250.544V195.84C250.544 198.622 252.13 200.156 254.912 200.156C256.03 200.156 257.174 199.844 257.928 199.194L257.148 197.4ZM265.963 186.09C263.753 186.09 261.699 186.714 260.269 187.858L261.309 189.73C262.375 188.82 264.039 188.248 265.677 188.248C268.147 188.248 269.369 189.47 269.369 191.576V192.07H265.417C261.309 192.07 259.879 193.89 259.879 196.1C259.879 198.492 261.855 200.156 264.975 200.156C267.133 200.156 268.667 199.428 269.499 198.18V200H271.865V191.68C271.865 187.91 269.733 186.09 265.963 186.09ZM265.391 198.232C263.493 198.232 262.349 197.374 262.349 195.996C262.349 194.826 263.051 193.864 265.521 193.864H269.369V195.788C268.745 197.374 267.263 198.232 265.391 198.232ZM283.843 186.09C281.659 186.09 279.891 186.896 278.877 188.3V186.22H276.484V200H278.98V192.902C278.98 189.912 280.697 188.326 283.349 188.326C285.715 188.326 287.067 189.652 287.067 192.356V200H289.563V192.07C289.563 188.014 287.197 186.09 283.843 186.09ZM304.762 180.708V188.3C303.618 186.818 301.902 186.09 299.952 186.09C295.922 186.09 292.984 188.898 292.984 193.11C292.984 197.322 295.922 200.156 299.952 200.156C301.98 200.156 303.748 199.376 304.866 197.816V200H307.258V180.708H304.762ZM300.16 197.972C297.508 197.972 295.506 196.048 295.506 193.11C295.506 190.172 297.508 188.274 300.16 188.274C302.786 188.274 304.788 190.172 304.788 193.11C304.788 196.048 302.786 197.972 300.16 197.972ZM313.229 183.568C314.217 183.568 314.919 182.84 314.919 181.904C314.919 181.02 314.191 180.318 313.229 180.318C312.267 180.318 311.539 181.046 311.539 181.956C311.539 182.866 312.267 183.568 313.229 183.568ZM311.981 200H314.477V186.22H311.981V200ZM326.6 186.09C324.416 186.09 322.648 186.896 321.634 188.3V186.22H319.242V200H321.738V192.902C321.738 189.912 323.454 188.326 326.106 188.326C328.472 188.326 329.824 189.652 329.824 192.356V200H332.32V192.07C332.32 188.014 329.954 186.09 326.6 186.09ZM347.832 186.22V188.352C346.662 186.844 344.79 186.09 342.736 186.09C338.758 186.09 335.742 188.768 335.742 192.746C335.742 196.724 338.758 199.428 342.736 199.428C344.712 199.428 346.506 198.726 347.702 197.296V198.388C347.702 201.508 346.22 203.016 342.97 203.016C340.942 203.016 338.94 202.314 337.666 201.222L336.47 203.146C337.978 204.498 340.526 205.2 343.048 205.2C347.728 205.2 350.198 202.99 350.198 198.128V186.22H347.832ZM343.022 197.244C340.24 197.244 338.264 195.398 338.264 192.746C338.264 190.068 340.24 188.274 343.022 188.274C345.778 188.274 347.754 190.068 347.754 192.746C347.754 195.398 345.778 197.244 343.022 197.244ZM366.967 186.09C364.757 186.09 362.703 186.714 361.273 187.858L362.313 189.73C363.379 188.82 365.043 188.248 366.681 188.248C369.151 188.248 370.373 189.47 370.373 191.576V192.07H366.421C362.313 192.07 360.883 193.89 360.883 196.1C360.883 198.492 362.859 200.156 365.979 200.156C368.137 200.156 369.671 199.428 370.503 198.18V200H372.869V191.68C372.869 187.91 370.737 186.09 366.967 186.09ZM366.395 198.232C364.497 198.232 363.353 197.374 363.353 195.996C363.353 194.826 364.055 193.864 366.525 193.864H370.373V195.788C369.749 197.374 368.267 198.232 366.395 198.232ZM384.846 186.09C382.662 186.09 380.894 186.896 379.88 188.3V186.22H377.488V200H379.984V192.902C379.984 189.912 381.7 188.326 384.352 188.326C386.718 188.326 388.07 189.652 388.07 192.356V200H390.566V192.07C390.566 188.014 388.2 186.09 384.846 186.09ZM405.766 180.708V188.3C404.622 186.818 402.906 186.09 400.956 186.09C396.926 186.09 393.988 188.898 393.988 193.11C393.988 197.322 396.926 200.156 400.956 200.156C402.984 200.156 404.752 199.376 405.87 197.816V200H408.262V180.708H405.766ZM401.164 197.972C398.512 197.972 396.51 196.048 396.51 193.11C396.51 190.172 398.512 188.274 401.164 188.274C403.79 188.274 405.792 190.172 405.792 193.11C405.792 196.048 403.79 197.972 401.164 197.972ZM424.985 186.09C422.775 186.09 420.721 186.714 419.291 187.858L420.331 189.73C421.397 188.82 423.061 188.248 424.699 188.248C427.169 188.248 428.391 189.47 428.391 191.576V192.07H424.439C420.331 192.07 418.901 193.89 418.901 196.1C418.901 198.492 420.877 200.156 423.997 200.156C426.155 200.156 427.689 199.428 428.521 198.18V200H430.887V191.68C430.887 187.91 428.755 186.09 424.985 186.09ZM424.413 198.232C422.515 198.232 421.371 197.374 421.371 195.996C421.371 194.826 422.073 193.864 424.543 193.864H428.391V195.788C427.767 197.374 426.285 198.232 424.413 198.232ZM452.744 186.09C450.404 186.09 448.48 187.078 447.44 188.638C446.53 186.922 444.762 186.09 442.656 186.09C440.576 186.09 438.886 186.87 437.898 188.274V186.22H435.506V200H438.002V192.902C438.002 189.912 439.64 188.326 442.136 188.326C444.398 188.326 445.698 189.652 445.698 192.356V200H448.194V192.902C448.194 189.912 449.832 188.326 452.328 188.326C454.59 188.326 455.89 189.652 455.89 192.356V200H458.386V192.07C458.386 188.014 456.098 186.09 452.744 186.09ZM467.997 186.09C465.787 186.09 463.733 186.714 462.303 187.858L463.343 189.73C464.409 188.82 466.073 188.248 467.711 188.248C470.181 188.248 471.403 189.47 471.403 191.576V192.07H467.451C463.343 192.07 461.913 193.89 461.913 196.1C461.913 198.492 463.889 200.156 467.009 200.156C469.167 200.156 470.701 199.428 471.533 198.18V200H473.899V191.68C473.899 187.91 471.767 186.09 467.997 186.09ZM467.425 198.232C465.527 198.232 464.383 197.374 464.383 195.996C464.383 194.826 465.085 193.864 467.555 193.864H471.403V195.788C470.779 197.374 469.297 198.232 467.425 198.232ZM480.39 197.946L488.528 187.858V186.22H477.348V188.274H485.33L477.192 198.388V200H488.736V197.946H480.39ZM493.324 183.568C494.312 183.568 495.014 182.84 495.014 181.904C495.014 181.02 494.286 180.318 493.324 180.318C492.362 180.318 491.634 181.046 491.634 181.956C491.634 182.866 492.362 183.568 493.324 183.568ZM492.076 200H494.572V186.22H492.076V200ZM506.696 186.09C504.512 186.09 502.744 186.896 501.73 188.3V186.22H499.338V200H501.834V192.902C501.834 189.912 503.55 188.326 506.202 188.326C508.568 188.326 509.92 189.652 509.92 192.356V200H512.416V192.07C512.416 188.014 510.05 186.09 506.696 186.09ZM527.927 186.22V188.352C526.757 186.844 524.885 186.09 522.831 186.09C518.853 186.09 515.837 188.768 515.837 192.746C515.837 196.724 518.853 199.428 522.831 199.428C524.807 199.428 526.601 198.726 527.797 197.296V198.388C527.797 201.508 526.315 203.016 523.065 203.016C521.037 203.016 519.035 202.314 517.761 201.222L516.565 203.146C518.073 204.498 520.621 205.2 523.143 205.2C527.823 205.2 530.293 202.99 530.293 198.128V186.22H527.927ZM523.117 197.244C520.335 197.244 518.359 195.398 518.359 192.746C518.359 190.068 520.335 188.274 523.117 188.274C525.873 188.274 527.849 190.068 527.849 192.746C527.849 195.398 525.873 197.244 523.117 197.244ZM535.661 200.156C536.597 200.156 537.377 199.402 537.377 198.362C537.377 197.322 536.597 196.594 535.661 196.594C534.699 196.594 533.893 197.322 533.893 198.362C533.893 199.402 534.699 200.156 535.661 200.156ZM551.914 200H554.488V184.062H560.728V181.8H545.674V184.062H551.914V200ZM570.553 186.09C568.447 186.09 566.731 186.844 565.691 188.17V180.708H563.195V200H565.691V192.902C565.691 189.912 567.407 188.326 570.059 188.326C572.425 188.326 573.777 189.652 573.777 192.356V200H576.273V192.07C576.273 188.014 573.907 186.09 570.553 186.09ZM593.423 193.188C593.423 188.95 590.589 186.09 586.611 186.09C582.633 186.09 579.695 189.028 579.695 193.11C579.695 197.218 582.659 200.156 587.105 200.156C589.393 200.156 591.291 199.376 592.539 197.92L591.161 196.308C590.147 197.426 588.795 197.972 587.183 197.972C584.453 197.972 582.503 196.36 582.191 193.942H593.371C593.397 193.708 593.423 193.396 593.423 193.188ZM586.611 188.196C589.029 188.196 590.771 189.834 591.031 192.148H582.191C582.451 189.808 584.219 188.196 586.611 188.196ZM606.385 186.22L601.627 197.244L596.817 186.22H594.217L600.301 199.974L599.859 200.936C599.183 202.522 598.429 203.068 597.233 203.068C596.297 203.068 595.439 202.704 594.763 202.054L593.697 203.926C594.555 204.758 595.907 205.2 597.233 205.2C599.339 205.2 600.925 204.29 602.147 201.378L608.829 186.22H606.385ZM636.757 186.22L632.649 197.244L628.567 186.22H626.461L622.301 197.192L618.297 186.22H615.931L621.053 200H623.445L627.475 189.548L631.453 200H633.845L638.993 186.22H636.757ZM653.599 193.188C653.599 188.95 650.765 186.09 646.787 186.09C642.809 186.09 639.871 189.028 639.871 193.11C639.871 197.218 642.835 200.156 647.281 200.156C649.569 200.156 651.467 199.376 652.715 197.92L651.337 196.308C650.323 197.426 648.971 197.972 647.359 197.972C644.629 197.972 642.679 196.36 642.367 193.942H653.547C653.573 193.708 653.599 193.396 653.599 193.188ZM646.787 188.196C649.205 188.196 650.947 189.834 651.207 192.148H642.367C642.627 189.808 644.395 188.196 646.787 188.196ZM659.457 188.534V186.22H657.065V200H659.561V193.136C659.561 190.12 661.225 188.482 663.903 188.482C664.085 188.482 664.267 188.482 664.475 188.508V186.09C662.057 186.09 660.341 186.922 659.457 188.534ZM679.878 193.188C679.878 188.95 677.044 186.09 673.066 186.09C669.088 186.09 666.15 189.028 666.15 193.11C666.15 197.218 669.114 200.156 673.56 200.156C675.848 200.156 677.746 199.376 678.994 197.92L677.616 196.308C676.602 197.426 675.25 197.972 673.638 197.972C670.908 197.972 668.958 196.36 668.646 193.942H679.826C679.852 193.708 679.878 193.396 679.878 193.188ZM673.066 188.196C675.484 188.196 677.226 189.834 677.486 192.148H668.646C668.906 189.808 670.674 188.196 673.066 188.196ZM164.512 240H167.008V220.708H164.512V240ZM173.022 223.568C174.01 223.568 174.712 222.84 174.712 221.904C174.712 221.02 173.984 220.318 173.022 220.318C172.06 220.318 171.332 221.046 171.332 221.956C171.332 222.866 172.06 223.568 173.022 223.568ZM171.774 240H174.27V226.22H171.774V240ZM186.003 237.4C185.483 237.816 184.781 238.05 184.053 238.05C182.675 238.05 181.895 237.218 181.895 235.736V228.274H185.847V226.22H181.895V223.204H179.399V226.22H177.059V228.274H179.399V235.84C179.399 238.622 180.985 240.156 183.767 240.156C184.885 240.156 186.029 239.844 186.783 239.194L186.003 237.4ZM201.798 233.188C201.798 228.95 198.964 226.09 194.986 226.09C191.008 226.09 188.07 229.028 188.07 233.11C188.07 237.218 191.034 240.156 195.48 240.156C197.768 240.156 199.666 239.376 200.914 237.92L199.536 236.308C198.522 237.426 197.17 237.972 195.558 237.972C192.828 237.972 190.878 236.36 190.566 233.942H201.746C201.772 233.708 201.798 233.396 201.798 233.188ZM194.986 228.196C197.404 228.196 199.146 229.834 199.406 232.148H190.566C190.826 229.808 192.594 228.196 194.986 228.196ZM207.656 228.534V226.22H205.264V240H207.76V233.136C207.76 230.12 209.424 228.482 212.102 228.482C212.284 228.482 212.466 228.482 212.674 228.508V226.09C210.256 226.09 208.54 226.922 207.656 228.534ZM220.743 226.09C218.533 226.09 216.479 226.714 215.049 227.858L216.089 229.73C217.155 228.82 218.819 228.248 220.457 228.248C222.927 228.248 224.149 229.47 224.149 231.576V232.07H220.197C216.089 232.07 214.659 233.89 214.659 236.1C214.659 238.492 216.635 240.156 219.755 240.156C221.913 240.156 223.447 239.428 224.279 238.18V240H226.645V231.68C226.645 227.91 224.513 226.09 220.743 226.09ZM220.171 238.232C218.273 238.232 217.129 237.374 217.129 235.996C217.129 234.826 217.831 233.864 220.301 233.864H224.149V235.788C223.525 237.374 222.043 238.232 220.171 238.232ZM231.264 240H233.76V220.708H231.264V240ZM238.526 240H241.022V220.708H238.526V240ZM255.537 226.22L250.779 237.244L245.969 226.22H243.369L249.453 239.974L249.011 240.936C248.335 242.522 247.581 243.068 246.385 243.068C245.449 243.068 244.591 242.704 243.915 242.054L242.849 243.926C243.707 244.758 245.059 245.2 246.385 245.2C248.491 245.2 250.077 244.29 251.299 241.378L257.981 226.22H255.537ZM285.909 226.22L281.801 237.244L277.719 226.22H275.613L271.453 237.192L267.449 226.22H265.083L270.205 240H272.597L276.627 229.548L280.605 240H282.997L288.145 226.22H285.909ZM291.926 223.568C292.914 223.568 293.616 222.84 293.616 221.904C293.616 221.02 292.888 220.318 291.926 220.318C290.964 220.318 290.236 221.046 290.236 221.956C290.236 222.866 290.964 223.568 291.926 223.568ZM290.678 240H293.174V226.22H290.678V240ZM304.908 237.4C304.388 237.816 303.686 238.05 302.958 238.05C301.58 238.05 300.8 237.218 300.8 235.736V228.274H304.752V226.22H300.8V223.204H298.304V226.22H295.964V228.274H298.304V235.84C298.304 238.622 299.89 240.156 302.672 240.156C303.79 240.156 304.934 239.844 305.688 239.194L304.908 237.4ZM316.063 226.09C313.957 226.09 312.241 226.844 311.201 228.17V220.708H308.705V240H311.201V232.902C311.201 229.912 312.917 228.326 315.569 228.326C317.935 228.326 319.287 229.652 319.287 232.356V240H321.783V232.07C321.783 228.014 319.417 226.09 316.063 226.09ZM350.623 226.09C348.283 226.09 346.359 227.078 345.319 228.638C344.409 226.922 342.641 226.09 340.535 226.09C338.455 226.09 336.765 226.87 335.777 228.274V226.22H333.385V240H335.881V232.902C335.881 229.912 337.519 228.326 340.015 228.326C342.277 228.326 343.577 229.652 343.577 232.356V240H346.073V232.902C346.073 229.912 347.711 228.326 350.207 228.326C352.469 228.326 353.769 229.652 353.769 232.356V240H356.265V232.07C356.265 228.014 353.977 226.09 350.623 226.09ZM373.388 233.188C373.388 228.95 370.554 226.09 366.576 226.09C362.598 226.09 359.66 229.028 359.66 233.11C359.66 237.218 362.624 240.156 367.07 240.156C369.358 240.156 371.256 239.376 372.504 237.92L371.126 236.308C370.112 237.426 368.76 237.972 367.148 237.972C364.418 237.972 362.468 236.36 362.156 233.942H373.336C373.362 233.708 373.388 233.396 373.388 233.188ZM366.576 228.196C368.994 228.196 370.736 229.834 370.996 232.148H362.156C362.416 229.808 364.184 228.196 366.576 228.196ZM388.854 226.09C386.644 226.09 384.59 226.714 383.16 227.858L384.2 229.73C385.266 228.82 386.93 228.248 388.568 228.248C391.038 228.248 392.26 229.47 392.26 231.576V232.07H388.308C384.2 232.07 382.77 233.89 382.77 236.1C382.77 238.492 384.746 240.156 387.866 240.156C390.024 240.156 391.558 239.428 392.39 238.18V240H394.756V231.68C394.756 227.91 392.624 226.09 388.854 226.09ZM388.282 238.232C386.384 238.232 385.24 237.374 385.24 235.996C385.24 234.826 385.942 233.864 388.412 233.864H392.26V235.788C391.636 237.374 390.154 238.232 388.282 238.232ZM406.343 237.4C405.823 237.816 405.121 238.05 404.393 238.05C403.015 238.05 402.235 237.218 402.235 235.736V228.274H406.187V226.22H402.235V223.204H399.739V226.22H397.399V228.274H399.739V235.84C399.739 238.622 401.325 240.156 404.107 240.156C405.225 240.156 406.369 239.844 407.123 239.194L406.343 237.4ZM429.577 233.188C429.577 228.95 426.743 226.09 422.765 226.09C418.787 226.09 415.849 229.028 415.849 233.11C415.849 237.218 418.813 240.156 423.259 240.156C425.547 240.156 427.445 239.376 428.693 237.92L427.315 236.308C426.301 237.426 424.949 237.972 423.337 237.972C420.607 237.972 418.657 236.36 418.345 233.942H429.525C429.551 233.708 429.577 233.396 429.577 233.188ZM422.765 228.196C425.183 228.196 426.925 229.834 427.185 232.148H418.345C418.605 229.808 420.373 228.196 422.765 228.196ZM442.539 226.22L437.703 237.27L432.971 226.22H430.371L436.403 240H438.951L444.983 226.22H442.539ZM459.386 233.188C459.386 228.95 456.552 226.09 452.574 226.09C448.596 226.09 445.658 229.028 445.658 233.11C445.658 237.218 448.622 240.156 453.068 240.156C455.356 240.156 457.254 239.376 458.502 237.92L457.124 236.308C456.11 237.426 454.758 237.972 453.146 237.972C450.416 237.972 448.466 236.36 448.154 233.942H459.334C459.36 233.708 459.386 233.396 459.386 233.188ZM452.574 228.196C454.992 228.196 456.734 229.834 456.994 232.148H448.154C448.414 229.808 450.182 228.196 452.574 228.196ZM465.244 228.534V226.22H462.852V240H465.348V233.136C465.348 230.12 467.012 228.482 469.69 228.482C469.872 228.482 470.054 228.482 470.262 228.508V226.09C467.844 226.09 466.128 226.922 465.244 228.534ZM483.647 226.22L478.889 237.244L474.079 226.22H471.479L477.563 239.974L477.121 240.936C476.445 242.522 475.691 243.068 474.495 243.068C473.559 243.068 472.701 242.704 472.025 242.054L470.959 243.926C471.817 244.758 473.169 245.2 474.495 245.2C476.601 245.2 478.187 244.29 479.409 241.378L486.091 226.22H483.647ZM499.354 240.156C503.02 240.156 505.308 238.57 505.308 236.074C505.308 230.718 496.572 233.37 496.572 230.12C496.572 229.028 497.638 228.222 499.822 228.222C501.174 228.222 502.552 228.508 503.8 229.314L504.866 227.338C503.67 226.558 501.642 226.09 499.848 226.09C496.312 226.09 494.102 227.754 494.102 230.224C494.102 235.71 502.812 233.032 502.812 236.126C502.812 237.296 501.85 237.998 499.536 237.998C497.742 237.998 495.87 237.4 494.7 236.568L493.66 238.544C494.804 239.454 497.066 240.156 499.354 240.156ZM515.396 237.4C514.876 237.816 514.174 238.05 513.446 238.05C512.068 238.05 511.288 237.218 511.288 235.736V228.274H515.24V226.22H511.288V223.204H508.792V226.22H506.452V228.274H508.792V235.84C508.792 238.622 510.378 240.156 513.16 240.156C514.278 240.156 515.422 239.844 516.176 239.194L515.396 237.4ZM531.19 233.188C531.19 228.95 528.356 226.09 524.378 226.09C520.4 226.09 517.462 229.028 517.462 233.11C517.462 237.218 520.426 240.156 524.872 240.156C527.16 240.156 529.058 239.376 530.306 237.92L528.928 236.308C527.914 237.426 526.562 237.972 524.95 237.972C522.22 237.972 520.27 236.36 519.958 233.942H531.138C531.164 233.708 531.19 233.396 531.19 233.188ZM524.378 228.196C526.796 228.196 528.538 229.834 528.798 232.148H519.958C520.218 229.808 521.986 228.196 524.378 228.196ZM541.962 226.09C539.934 226.09 538.166 226.87 537.048 228.404V226.22H534.656V245.044H537.152V237.92C538.296 239.402 540.012 240.156 541.962 240.156C545.992 240.156 548.93 237.348 548.93 233.11C548.93 228.898 545.992 226.09 541.962 226.09ZM541.754 237.972C539.128 237.972 537.126 236.048 537.126 233.11C537.126 230.198 539.128 228.274 541.754 228.274C544.406 228.274 546.408 230.198 546.408 233.11C546.408 236.048 544.406 237.972 541.754 237.972ZM564.405 222.606C565.133 222.606 565.809 222.866 566.329 223.256L567.083 221.358C566.381 220.812 565.341 220.552 564.275 220.552C561.337 220.552 559.725 222.32 559.725 224.998V226.22H557.385V228.274H559.725V240H562.221V228.274H566.173V226.22H562.169V225.024C562.169 223.438 562.923 222.606 564.405 222.606ZM573.002 228.534V226.22H570.609V240H573.105V233.136C573.105 230.12 574.77 228.482 577.447 228.482C577.63 228.482 577.812 228.482 578.02 228.508V226.09C575.602 226.09 573.885 226.922 573.002 228.534ZM586.871 240.156C591.005 240.156 594.021 237.218 594.021 233.11C594.021 229.002 591.005 226.09 586.871 226.09C582.737 226.09 579.695 229.002 579.695 233.11C579.695 237.218 582.737 240.156 586.871 240.156ZM586.871 237.972C584.219 237.972 582.217 236.048 582.217 233.11C582.217 230.172 584.219 228.274 586.871 228.274C589.523 228.274 591.499 230.172 591.499 233.11C591.499 236.048 589.523 237.972 586.871 237.972ZM614.711 226.09C612.371 226.09 610.447 227.078 609.407 228.638C608.497 226.922 606.729 226.09 604.623 226.09C602.543 226.09 600.853 226.87 599.865 228.274V226.22H597.473V240H599.969V232.902C599.969 229.912 601.607 228.326 604.103 228.326C606.365 228.326 607.665 229.652 607.665 232.356V240H610.161V232.902C610.161 229.912 611.799 228.326 614.295 228.326C616.557 228.326 617.857 229.652 617.857 232.356V240H620.353V232.07C620.353 228.014 618.065 226.09 614.711 226.09ZM638.896 237.4C638.376 237.816 637.674 238.05 636.946 238.05C635.568 238.05 634.788 237.218 634.788 235.736V228.274H638.74V226.22H634.788V223.204H632.292V226.22H629.952V228.274H632.292V235.84C632.292 238.622 633.878 240.156 636.66 240.156C637.778 240.156 638.922 239.844 639.676 239.194L638.896 237.4ZM650.051 226.09C647.945 226.09 646.229 226.844 645.189 228.17V220.708H642.693V240H645.189V232.902C645.189 229.912 646.905 228.326 649.557 228.326C651.923 228.326 653.275 229.652 653.275 232.356V240H655.771V232.07C655.771 228.014 653.405 226.09 650.051 226.09ZM672.921 233.188C672.921 228.95 670.087 226.09 666.109 226.09C662.131 226.09 659.193 229.028 659.193 233.11C659.193 237.218 662.157 240.156 666.603 240.156C668.891 240.156 670.789 239.376 672.037 237.92L670.659 236.308C669.645 237.426 668.293 237.972 666.681 237.972C663.951 237.972 662.001 236.36 661.689 233.942H672.869C672.895 233.708 672.921 233.396 672.921 233.188ZM666.109 228.196C668.527 228.196 670.269 229.834 670.529 232.148H661.689C661.949 229.808 663.717 228.196 666.109 228.196ZM181.197 262.568C182.185 262.568 182.887 261.84 182.887 260.904C182.887 260.02 182.159 259.318 181.197 259.318C180.235 259.318 179.507 260.046 179.507 260.956C179.507 261.866 180.235 262.568 181.197 262.568ZM179.949 279H182.445V265.22H179.949V279ZM194.569 265.09C192.385 265.09 190.617 265.896 189.603 267.3V265.22H187.211V279H189.707V271.902C189.707 268.912 191.423 267.326 194.075 267.326C196.441 267.326 197.793 268.652 197.793 271.356V279H200.289V271.07C200.289 267.014 197.923 265.09 194.569 265.09ZM211.876 276.4C211.356 276.816 210.654 277.05 209.926 277.05C208.548 277.05 207.768 276.218 207.768 274.736V267.274H211.72V265.22H207.768V262.204H205.272V265.22H202.932V267.274H205.272V274.84C205.272 277.622 206.858 279.156 209.64 279.156C210.758 279.156 211.902 278.844 212.656 278.194L211.876 276.4ZM227.671 272.188C227.671 267.95 224.837 265.09 220.859 265.09C216.881 265.09 213.943 268.028 213.943 272.11C213.943 276.218 216.907 279.156 221.353 279.156C223.641 279.156 225.539 278.376 226.787 276.92L225.409 275.308C224.395 276.426 223.043 276.972 221.431 276.972C218.701 276.972 216.751 275.36 216.439 272.942H227.619C227.645 272.708 227.671 272.396 227.671 272.188ZM220.859 267.196C223.277 267.196 225.019 268.834 225.279 271.148H216.439C216.699 268.808 218.467 267.196 220.859 267.196ZM233.529 267.534V265.22H231.137V279H233.633V272.136C233.633 269.12 235.297 267.482 237.975 267.482C238.157 267.482 238.339 267.482 238.547 267.508V265.09C236.129 265.09 234.413 265.922 233.529 267.534ZM251.932 265.22L247.096 276.27L242.364 265.22H239.764L245.796 279H248.344L254.376 265.22H251.932ZM257.953 262.568C258.941 262.568 259.643 261.84 259.643 260.904C259.643 260.02 258.915 259.318 257.953 259.318C256.991 259.318 256.263 260.046 256.263 260.956C256.263 261.866 256.991 262.568 257.953 262.568ZM256.705 279H259.201V265.22H256.705V279ZM276.421 272.188C276.421 267.95 273.587 265.09 269.609 265.09C265.631 265.09 262.693 268.028 262.693 272.11C262.693 276.218 265.657 279.156 270.103 279.156C272.391 279.156 274.289 278.376 275.537 276.92L274.159 275.308C273.145 276.426 271.793 276.972 270.181 276.972C267.451 276.972 265.501 275.36 265.189 272.942H276.369C276.395 272.708 276.421 272.396 276.421 272.188ZM269.609 267.196C272.027 267.196 273.769 268.834 274.029 271.148H265.189C265.449 268.808 267.217 267.196 269.609 267.196ZM298.249 265.22L294.141 276.244L290.059 265.22H287.953L283.793 276.192L279.789 265.22H277.423L282.545 279H284.937L288.967 268.548L292.945 279H295.337L300.485 265.22H298.249ZM316.968 276.4C316.448 276.816 315.746 277.05 315.018 277.05C313.64 277.05 312.86 276.218 312.86 274.736V267.274H316.812V265.22H312.86V262.204H310.364V265.22H308.024V267.274H310.364V274.84C310.364 277.622 311.95 279.156 314.732 279.156C315.85 279.156 316.994 278.844 317.748 278.194L316.968 276.4ZM326.211 279.156C330.345 279.156 333.361 276.218 333.361 272.11C333.361 268.002 330.345 265.09 326.211 265.09C322.077 265.09 319.035 268.002 319.035 272.11C319.035 276.218 322.077 279.156 326.211 279.156ZM326.211 276.972C323.559 276.972 321.557 275.048 321.557 272.11C321.557 269.172 323.559 267.274 326.211 267.274C328.863 267.274 330.839 269.172 330.839 272.11C330.839 275.048 328.863 276.972 326.211 276.972ZM350.763 276.4C350.243 276.816 349.541 277.05 348.813 277.05C347.435 277.05 346.655 276.218 346.655 274.736V267.274H350.607V265.22H346.655V262.204H344.159V265.22H341.819V267.274H344.159V274.84C344.159 277.622 345.745 279.156 348.527 279.156C349.645 279.156 350.789 278.844 351.543 278.194L350.763 276.4ZM361.919 265.09C359.813 265.09 358.097 265.844 357.057 267.17V259.708H354.561V279H357.057V271.902C357.057 268.912 358.773 267.326 361.425 267.326C363.791 267.326 365.143 268.652 365.143 271.356V279H367.639V271.07C367.639 267.014 365.273 265.09 361.919 265.09ZM384.788 272.188C384.788 267.95 381.954 265.09 377.976 265.09C373.998 265.09 371.06 268.028 371.06 272.11C371.06 276.218 374.024 279.156 378.47 279.156C380.758 279.156 382.656 278.376 383.904 276.92L382.526 275.308C381.512 276.426 380.16 276.972 378.548 276.972C375.818 276.972 373.868 275.36 373.556 272.942H384.736C384.762 272.708 384.788 272.396 384.788 272.188ZM377.976 267.196C380.394 267.196 382.136 268.834 382.396 271.148H373.556C373.816 268.808 375.584 267.196 377.976 267.196ZM413.852 265.22L409.744 276.244L405.662 265.22H403.556L399.396 276.192L395.392 265.22H393.026L398.148 279H400.54L404.57 268.548L408.548 279H410.94L416.088 265.22H413.852ZM423.208 265.09C420.998 265.09 418.944 265.714 417.514 266.858L418.554 268.73C419.62 267.82 421.284 267.248 422.922 267.248C425.392 267.248 426.614 268.47 426.614 270.576V271.07H422.662C418.554 271.07 417.124 272.89 417.124 275.1C417.124 277.492 419.1 279.156 422.22 279.156C424.378 279.156 425.912 278.428 426.744 277.18V279H429.11V270.68C429.11 266.91 426.978 265.09 423.208 265.09ZM422.636 277.232C420.738 277.232 419.594 276.374 419.594 274.996C419.594 273.826 420.296 272.864 422.766 272.864H426.614V274.788C425.99 276.374 424.508 277.232 422.636 277.232ZM434.977 262.568C435.965 262.568 436.667 261.84 436.667 260.904C436.667 260.02 435.939 259.318 434.977 259.318C434.015 259.318 433.287 260.046 433.287 260.956C433.287 261.866 434.015 262.568 434.977 262.568ZM433.729 279H436.225V265.22H433.729V279ZM447.958 276.4C447.438 276.816 446.736 277.05 446.008 277.05C444.63 277.05 443.85 276.218 443.85 274.736V267.274H447.802V265.22H443.85V262.204H441.354V265.22H439.014V267.274H441.354V274.84C441.354 277.622 442.94 279.156 445.722 279.156C446.84 279.156 447.984 278.844 448.738 278.194L447.958 276.4ZM453.004 262.568C453.992 262.568 454.694 261.84 454.694 260.904C454.694 260.02 453.966 259.318 453.004 259.318C452.042 259.318 451.314 260.046 451.314 260.956C451.314 261.866 452.042 262.568 453.004 262.568ZM451.756 279H454.252V265.22H451.756V279ZM466.376 265.09C464.192 265.09 462.424 265.896 461.41 267.3V265.22H459.018V279H461.514V271.902C461.514 268.912 463.23 267.326 465.882 267.326C468.248 267.326 469.6 268.652 469.6 271.356V279H472.096V271.07C472.096 267.014 469.73 265.09 466.376 265.09ZM487.607 265.22V267.352C486.437 265.844 484.565 265.09 482.511 265.09C478.533 265.09 475.517 267.768 475.517 271.746C475.517 275.724 478.533 278.428 482.511 278.428C484.487 278.428 486.281 277.726 487.477 276.296V277.388C487.477 280.508 485.995 282.016 482.745 282.016C480.717 282.016 478.715 281.314 477.441 280.222L476.245 282.146C477.753 283.498 480.301 284.2 482.823 284.2C487.503 284.2 489.973 281.99 489.973 277.128V265.22H487.607ZM482.797 276.244C480.015 276.244 478.039 274.398 478.039 271.746C478.039 269.068 480.015 267.274 482.797 267.274C485.553 267.274 487.529 269.068 487.529 271.746C487.529 274.398 485.553 276.244 482.797 276.244ZM509.031 265.09C507.003 265.09 505.235 265.87 504.117 267.404V265.22H501.725V284.044H504.221V276.92C505.365 278.402 507.081 279.156 509.031 279.156C513.061 279.156 515.999 276.348 515.999 272.11C515.999 267.898 513.061 265.09 509.031 265.09ZM508.823 276.972C506.197 276.972 504.195 275.048 504.195 272.11C504.195 269.198 506.197 267.274 508.823 267.274C511.475 267.274 513.477 269.198 513.477 272.11C513.477 275.048 511.475 276.972 508.823 276.972ZM521.839 267.534V265.22H519.447V279H521.943V272.136C521.943 269.12 523.607 267.482 526.285 267.482C526.467 267.482 526.649 267.482 526.857 267.508V265.09C524.439 265.09 522.723 265.922 521.839 267.534ZM535.709 279.156C539.843 279.156 542.859 276.218 542.859 272.11C542.859 268.002 539.843 265.09 535.709 265.09C531.575 265.09 528.533 268.002 528.533 272.11C528.533 276.218 531.575 279.156 535.709 279.156ZM535.709 276.972C533.057 276.972 531.055 275.048 531.055 272.11C531.055 269.172 533.057 267.274 535.709 267.274C538.361 267.274 540.337 269.172 540.337 272.11C540.337 275.048 538.361 276.972 535.709 276.972ZM552.317 279.156C554.787 279.156 556.841 278.116 557.933 276.192L556.035 274.996C555.151 276.348 553.799 276.972 552.291 276.972C549.587 276.972 547.559 275.1 547.559 272.11C547.559 269.172 549.587 267.274 552.291 267.274C553.799 267.274 555.151 267.898 556.035 269.25L557.933 268.028C556.841 266.104 554.787 265.09 552.317 265.09C548.079 265.09 545.037 268.002 545.037 272.11C545.037 276.218 548.079 279.156 552.317 279.156ZM573.415 272.188C573.415 267.95 570.581 265.09 566.603 265.09C562.625 265.09 559.687 268.028 559.687 272.11C559.687 276.218 562.651 279.156 567.097 279.156C569.385 279.156 571.283 278.376 572.531 276.92L571.153 275.308C570.139 276.426 568.787 276.972 567.175 276.972C564.445 276.972 562.495 275.36 562.183 272.942H573.363C573.389 272.708 573.415 272.396 573.415 272.188ZM566.603 267.196C569.021 267.196 570.763 268.834 571.023 271.148H562.183C562.443 268.808 564.211 267.196 566.603 267.196ZM580.833 279.156C584.499 279.156 586.787 277.57 586.787 275.074C586.787 269.718 578.051 272.37 578.051 269.12C578.051 268.028 579.117 267.222 581.301 267.222C582.653 267.222 584.031 267.508 585.279 268.314L586.345 266.338C585.149 265.558 583.121 265.09 581.327 265.09C577.791 265.09 575.581 266.754 575.581 269.224C575.581 274.71 584.291 272.032 584.291 275.126C584.291 276.296 583.329 276.998 581.015 276.998C579.221 276.998 577.349 276.4 576.179 275.568L575.139 277.544C576.283 278.454 578.545 279.156 580.833 279.156ZM593.858 279.156C597.524 279.156 599.812 277.57 599.812 275.074C599.812 269.718 591.076 272.37 591.076 269.12C591.076 268.028 592.142 267.222 594.326 267.222C595.678 267.222 597.056 267.508 598.304 268.314L599.37 266.338C598.174 265.558 596.146 265.09 594.352 265.09C590.816 265.09 588.606 266.754 588.606 269.224C588.606 274.71 597.316 272.032 597.316 275.126C597.316 276.296 596.354 276.998 594.04 276.998C592.246 276.998 590.374 276.4 589.204 275.568L588.164 277.544C589.308 278.454 591.57 279.156 593.858 279.156ZM614.932 265.09C612.722 265.09 610.668 265.714 609.238 266.858L610.278 268.73C611.344 267.82 613.008 267.248 614.646 267.248C617.116 267.248 618.338 268.47 618.338 270.576V271.07H614.386C610.278 271.07 608.848 272.89 608.848 275.1C608.848 277.492 610.824 279.156 613.944 279.156C616.102 279.156 617.636 278.428 618.468 277.18V279H620.834V270.68C620.834 266.91 618.702 265.09 614.932 265.09ZM614.36 277.232C612.462 277.232 611.318 276.374 611.318 274.996C611.318 273.826 612.02 272.864 614.49 272.864H618.338V274.788C617.714 276.374 616.232 277.232 614.36 277.232ZM632.811 265.09C630.627 265.09 628.859 265.896 627.845 267.3V265.22H625.453V279H627.949V271.902C627.949 268.912 629.665 267.326 632.317 267.326C634.683 267.326 636.035 268.652 636.035 271.356V279H638.531V271.07C638.531 267.014 636.165 265.09 632.811 265.09ZM653.731 259.708V267.3C652.587 265.818 650.871 265.09 648.921 265.09C644.891 265.09 641.953 267.898 641.953 272.11C641.953 276.322 644.891 279.156 648.921 279.156C650.949 279.156 652.717 278.376 653.835 276.816V279H656.227V259.708H653.731ZM649.129 276.972C646.477 276.972 644.475 275.048 644.475 272.11C644.475 269.172 646.477 267.274 649.129 267.274C651.755 267.274 653.757 269.172 653.757 272.11C653.757 275.048 651.755 276.972 649.129 276.972ZM195.147 302.568C196.135 302.568 196.837 301.84 196.837 300.904C196.837 300.02 196.109 299.318 195.147 299.318C194.185 299.318 193.457 300.046 193.457 300.956C193.457 301.866 194.185 302.568 195.147 302.568ZM183.005 303.998V305.22H180.665V307.274H183.005V319H185.501V307.274H189.453V305.22H185.449V304.024C185.449 302.438 186.203 301.606 187.685 301.606C188.413 301.606 189.089 301.866 189.609 302.256L190.363 300.358C189.661 299.812 188.621 299.552 187.555 299.552C184.617 299.552 183.005 301.32 183.005 303.998ZM193.899 319H196.395V305.22H193.899V319ZM208.509 305.09C206.325 305.09 204.557 305.896 203.543 307.3V305.22H201.151V319H203.647V311.902C203.647 308.912 205.363 307.326 208.015 307.326C210.381 307.326 211.733 308.652 211.733 311.356V319H214.229V311.07C214.229 307.014 211.863 305.09 208.509 305.09ZM223.866 305.09C221.656 305.09 219.602 305.714 218.172 306.858L219.212 308.73C220.278 307.82 221.942 307.248 223.58 307.248C226.05 307.248 227.272 308.47 227.272 310.576V311.07H223.32C219.212 311.07 217.782 312.89 217.782 315.1C217.782 317.492 219.758 319.156 222.878 319.156C225.036 319.156 226.57 318.428 227.402 317.18V319H229.768V310.68C229.768 306.91 227.636 305.09 223.866 305.09ZM223.294 317.232C221.396 317.232 220.252 316.374 220.252 314.996C220.252 313.826 220.954 312.864 223.424 312.864H227.272V314.788C226.648 316.374 225.166 317.232 223.294 317.232ZM234.387 319H236.883V299.708H234.387V319ZM241.649 319H244.145V299.708H241.649V319ZM258.66 305.22L253.902 316.244L249.092 305.22H246.492L252.576 318.974L252.134 319.936C251.458 321.522 250.704 322.068 249.508 322.068C248.572 322.068 247.714 321.704 247.038 321.054L245.972 322.926C246.83 323.758 248.182 324.2 249.508 324.2C251.614 324.2 253.2 323.29 254.422 320.378L261.104 305.22H258.66ZM277.384 316.4C276.864 316.816 276.162 317.05 275.434 317.05C274.056 317.05 273.276 316.218 273.276 314.736V307.274H277.228V305.22H273.276V302.204H270.78V305.22H268.44V307.274H270.78V314.84C270.78 317.622 272.366 319.156 275.148 319.156C276.266 319.156 277.41 318.844 278.164 318.194L277.384 316.4ZM286.627 319.156C290.761 319.156 293.777 316.218 293.777 312.11C293.777 308.002 290.761 305.09 286.627 305.09C282.493 305.09 279.451 308.002 279.451 312.11C279.451 316.218 282.493 319.156 286.627 319.156ZM286.627 316.972C283.975 316.972 281.973 315.048 281.973 312.11C281.973 309.172 283.975 307.274 286.627 307.274C289.279 307.274 291.255 309.172 291.255 312.11C291.255 315.048 289.279 316.972 286.627 316.972ZM315.027 305.22V307.352C313.857 305.844 311.985 305.09 309.931 305.09C305.953 305.09 302.937 307.768 302.937 311.746C302.937 315.724 305.953 318.428 309.931 318.428C311.907 318.428 313.701 317.726 314.897 316.296V317.388C314.897 320.508 313.415 322.016 310.165 322.016C308.137 322.016 306.135 321.314 304.861 320.222L303.665 322.146C305.173 323.498 307.721 324.2 310.243 324.2C314.923 324.2 317.393 321.99 317.393 317.128V305.22H315.027ZM310.217 316.244C307.435 316.244 305.459 314.398 305.459 311.746C305.459 309.068 307.435 307.274 310.217 307.274C312.973 307.274 314.949 309.068 314.949 311.746C314.949 314.398 312.973 316.244 310.217 316.244ZM334.616 312.188C334.616 307.95 331.782 305.09 327.804 305.09C323.826 305.09 320.888 308.028 320.888 312.11C320.888 316.218 323.852 319.156 328.298 319.156C330.586 319.156 332.484 318.376 333.732 316.92L332.354 315.308C331.34 316.426 329.988 316.972 328.376 316.972C325.646 316.972 323.696 315.36 323.384 312.942H334.564C334.59 312.708 334.616 312.396 334.616 312.188ZM327.804 307.196C330.222 307.196 331.964 308.834 332.224 311.148H323.384C323.644 308.808 325.412 307.196 327.804 307.196ZM345.05 316.4C344.53 316.816 343.828 317.05 343.1 317.05C341.722 317.05 340.942 316.218 340.942 314.736V307.274H344.894V305.22H340.942V302.204H338.446V305.22H336.106V307.274H338.446V314.84C338.446 317.622 340.032 319.156 342.814 319.156C343.932 319.156 345.076 318.844 345.83 318.194L345.05 316.4ZM355.486 316.4C354.966 316.816 354.264 317.05 353.536 317.05C352.158 317.05 351.378 316.218 351.378 314.736V307.274H355.33V305.22H351.378V302.204H348.882V305.22H346.542V307.274H348.882V314.84C348.882 317.622 350.468 319.156 353.25 319.156C354.368 319.156 355.512 318.844 356.266 318.194L355.486 316.4ZM360.531 302.568C361.519 302.568 362.221 301.84 362.221 300.904C362.221 300.02 361.493 299.318 360.531 299.318C359.569 299.318 358.841 300.046 358.841 300.956C358.841 301.866 359.569 302.568 360.531 302.568ZM359.283 319H361.779V305.22H359.283V319ZM373.903 305.09C371.719 305.09 369.951 305.896 368.937 307.3V305.22H366.545V319H369.041V311.902C369.041 308.912 370.757 307.326 373.409 307.326C375.775 307.326 377.127 308.652 377.127 311.356V319H379.623V311.07C379.623 307.014 377.257 305.09 373.903 305.09ZM395.134 305.22V307.352C393.964 305.844 392.092 305.09 390.038 305.09C386.06 305.09 383.044 307.768 383.044 311.746C383.044 315.724 386.06 318.428 390.038 318.428C392.014 318.428 393.808 317.726 395.004 316.296V317.388C395.004 320.508 393.522 322.016 390.272 322.016C388.244 322.016 386.242 321.314 384.968 320.222L383.772 322.146C385.28 323.498 387.828 324.2 390.35 324.2C395.03 324.2 397.5 321.99 397.5 317.128V305.22H395.134ZM390.324 316.244C387.542 316.244 385.566 314.398 385.566 311.746C385.566 309.068 387.542 307.274 390.324 307.274C393.08 307.274 395.056 309.068 395.056 311.746C395.056 314.398 393.08 316.244 390.324 316.244ZM416.22 316.4C415.7 316.816 414.998 317.05 414.27 317.05C412.892 317.05 412.112 316.218 412.112 314.736V307.274H416.064V305.22H412.112V302.204H409.616V305.22H407.276V307.274H409.616V314.84C409.616 317.622 411.202 319.156 413.984 319.156C415.102 319.156 416.246 318.844 417 318.194L416.22 316.4ZM427.376 305.09C425.27 305.09 423.554 305.844 422.514 307.17V299.708H420.018V319H422.514V311.902C422.514 308.912 424.23 307.326 426.882 307.326C429.248 307.326 430.6 308.652 430.6 311.356V319H433.096V311.07C433.096 307.014 430.73 305.09 427.376 305.09ZM450.245 312.188C450.245 307.95 447.411 305.09 443.433 305.09C439.455 305.09 436.517 308.028 436.517 312.11C436.517 316.218 439.481 319.156 443.927 319.156C446.215 319.156 448.113 318.376 449.361 316.92L447.983 315.308C446.969 316.426 445.617 316.972 444.005 316.972C441.275 316.972 439.325 315.36 439.013 312.942H450.193C450.219 312.708 450.245 312.396 450.245 312.188ZM443.433 307.196C445.851 307.196 447.593 308.834 447.853 311.148H439.013C439.273 308.808 441.041 307.196 443.433 307.196ZM463.397 319.208C467.115 319.208 469.091 317.206 469.091 313.15V300.8H459.939V303.062H466.517V313.28C466.517 315.724 465.451 316.972 463.397 316.972C461.863 316.972 460.589 316.218 459.601 314.814L458.093 316.582C459.263 318.272 461.239 319.208 463.397 319.208ZM479.926 319.156C484.06 319.156 487.076 316.218 487.076 312.11C487.076 308.002 484.06 305.09 479.926 305.09C475.792 305.09 472.75 308.002 472.75 312.11C472.75 316.218 475.792 319.156 479.926 319.156ZM479.926 316.972C477.274 316.972 475.272 315.048 475.272 312.11C475.272 309.172 477.274 307.274 479.926 307.274C482.578 307.274 484.554 309.172 484.554 312.11C484.554 315.048 482.578 316.972 479.926 316.972ZM497.833 305.09C495.883 305.09 494.167 305.818 493.023 307.3V299.708H490.527V319H492.919V316.816C494.037 318.376 495.805 319.156 497.833 319.156C501.863 319.156 504.801 316.322 504.801 312.11C504.801 307.898 501.863 305.09 497.833 305.09ZM497.625 316.972C494.999 316.972 492.997 315.048 492.997 312.11C492.997 309.172 494.999 307.274 497.625 307.274C500.277 307.274 502.279 309.172 502.279 312.11C502.279 315.048 500.277 316.972 497.625 316.972ZM508.543 319.156C509.479 319.156 510.259 318.402 510.259 317.362C510.259 316.322 509.479 315.594 508.543 315.594C507.581 315.594 506.775 316.322 506.775 317.362C506.775 318.402 507.581 319.156 508.543 319.156ZM524.796 319H527.37V303.062H533.61V300.8H518.556V303.062H524.796V319ZM543.436 305.09C541.33 305.09 539.614 305.844 538.574 307.17V299.708H536.078V319H538.574V311.902C538.574 308.912 540.29 307.326 542.942 307.326C545.308 307.326 546.66 308.652 546.66 311.356V319H549.156V311.07C549.156 307.014 546.79 305.09 543.436 305.09ZM558.794 305.09C556.584 305.09 554.53 305.714 553.1 306.858L554.14 308.73C555.206 307.82 556.87 307.248 558.508 307.248C560.978 307.248 562.2 308.47 562.2 310.576V311.07H558.248C554.14 311.07 552.71 312.89 552.71 315.1C552.71 317.492 554.686 319.156 557.806 319.156C559.964 319.156 561.498 318.428 562.33 317.18V319H564.696V310.68C564.696 306.91 562.564 305.09 558.794 305.09ZM558.222 317.232C556.324 317.232 555.18 316.374 555.18 314.996C555.18 313.826 555.882 312.864 558.352 312.864H562.2V314.788C561.576 316.374 560.094 317.232 558.222 317.232ZM576.673 305.09C574.489 305.09 572.721 305.896 571.707 307.3V305.22H569.315V319H571.811V311.902C571.811 308.912 573.527 307.326 576.179 307.326C578.545 307.326 579.897 308.652 579.897 311.356V319H582.393V311.07C582.393 307.014 580.027 305.09 576.673 305.09ZM597.542 319H600.61L594.24 310.914L600.038 305.22H597.022L589.508 312.084V299.708H587.012V319H589.508V315.23L592.368 312.578L597.542 319ZM619.766 305.22L615.008 316.244L610.198 305.22H607.598L613.682 318.974L613.24 319.936C612.564 321.522 611.81 322.068 610.614 322.068C609.678 322.068 608.82 321.704 608.144 321.054L607.078 322.926C607.936 323.758 609.288 324.2 610.614 324.2C612.72 324.2 614.306 323.29 615.528 320.378L622.21 305.22H619.766ZM630.06 319.156C634.194 319.156 637.21 316.218 637.21 312.11C637.21 308.002 634.194 305.09 630.06 305.09C625.926 305.09 622.884 308.002 622.884 312.11C622.884 316.218 625.926 319.156 630.06 319.156ZM630.06 316.972C627.408 316.972 625.406 315.048 625.406 312.11C625.406 309.172 627.408 307.274 630.06 307.274C632.712 307.274 634.688 309.172 634.688 312.11C634.688 315.048 632.712 316.972 630.06 316.972ZM651.01 305.22V312.344C651.01 315.308 649.346 316.92 646.746 316.92C644.38 316.92 643.028 315.568 643.028 312.864V305.22H640.532V313.15C640.532 317.206 642.898 319.156 646.46 319.156C648.41 319.156 650.126 318.35 651.14 316.92V319H653.506V305.22H651.01ZM269.842 358H272.572L264.304 339.8H261.73L253.488 358H256.166L258.168 353.45H267.84L269.842 358ZM259.078 351.37L263.004 342.452L266.93 351.37H259.078ZM285.453 358H288.521L282.151 349.914L287.949 344.22H284.933L277.419 351.084V338.708H274.923V358H277.419V354.23L280.279 351.578L285.453 358ZM296.262 358.156C300.396 358.156 303.412 355.218 303.412 351.11C303.412 347.002 300.396 344.09 296.262 344.09C292.128 344.09 289.086 347.002 289.086 351.11C289.086 355.218 292.128 358.156 296.262 358.156ZM296.262 355.972C293.61 355.972 291.608 354.048 291.608 351.11C291.608 348.172 293.61 346.274 296.262 346.274C298.914 346.274 300.89 348.172 300.89 351.11C300.89 354.048 298.914 355.972 296.262 355.972ZM309.256 346.534V344.22H306.864V358H309.36V351.136C309.36 348.12 311.024 346.482 313.702 346.482C313.884 346.482 314.066 346.482 314.274 346.508V344.09C311.856 344.09 310.14 344.922 309.256 346.534ZM329.678 351.188C329.678 346.95 326.844 344.09 322.866 344.09C318.888 344.09 315.95 347.028 315.95 351.11C315.95 355.218 318.914 358.156 323.36 358.156C325.648 358.156 327.546 357.376 328.794 355.92L327.416 354.308C326.402 355.426 325.05 355.972 323.438 355.972C320.708 355.972 318.758 354.36 318.446 351.942H329.626C329.652 351.708 329.678 351.396 329.678 351.188ZM322.866 346.196C325.284 346.196 327.026 347.834 327.286 350.148H318.446C318.706 347.808 320.474 346.196 322.866 346.196ZM343.648 338.708V346.3C342.504 344.818 340.788 344.09 338.838 344.09C334.808 344.09 331.87 346.898 331.87 351.11C331.87 355.322 334.808 358.156 338.838 358.156C340.866 358.156 342.634 357.376 343.752 355.816V358H346.144V338.708H343.648ZM339.046 355.972C336.394 355.972 334.392 354.048 334.392 351.11C334.392 348.172 336.394 346.274 339.046 346.274C341.672 346.274 343.674 348.172 343.674 351.11C343.674 354.048 341.672 355.972 339.046 355.972ZM363.32 351.188C363.32 346.95 360.486 344.09 356.508 344.09C352.53 344.09 349.592 347.028 349.592 351.11C349.592 355.218 352.556 358.156 357.002 358.156C359.29 358.156 361.188 357.376 362.436 355.92L361.058 354.308C360.044 355.426 358.692 355.972 357.08 355.972C354.35 355.972 352.4 354.36 352.088 351.942H363.268C363.294 351.708 363.32 351.396 363.32 351.188ZM356.508 346.196C358.926 346.196 360.668 347.834 360.928 350.148H352.088C352.348 347.808 354.116 346.196 356.508 346.196ZM378.787 344.09C376.577 344.09 374.523 344.714 373.093 345.858L374.133 347.73C375.199 346.82 376.863 346.248 378.501 346.248C380.971 346.248 382.193 347.47 382.193 349.576V350.07H378.241C374.133 350.07 372.703 351.89 372.703 354.1C372.703 356.492 374.679 358.156 377.799 358.156C379.957 358.156 381.491 357.428 382.323 356.18V358H384.689V349.68C384.689 345.91 382.557 344.09 378.787 344.09ZM378.215 356.232C376.317 356.232 375.173 355.374 375.173 353.996C375.173 352.826 375.875 351.864 378.345 351.864H382.193V353.788C381.569 355.374 380.087 356.232 378.215 356.232ZM396.666 344.09C394.482 344.09 392.714 344.896 391.7 346.3V344.22H389.308V358H391.804V350.902C391.804 347.912 393.52 346.326 396.172 346.326C398.538 346.326 399.89 347.652 399.89 350.356V358H402.386V350.07C402.386 346.014 400.02 344.09 396.666 344.09ZM417.585 338.708V346.3C416.441 344.818 414.725 344.09 412.775 344.09C408.745 344.09 405.807 346.898 405.807 351.11C405.807 355.322 408.745 358.156 412.775 358.156C414.803 358.156 416.571 357.376 417.689 355.816V358H420.081V338.708H417.585ZM412.983 355.972C410.331 355.972 408.329 354.048 408.329 351.11C408.329 348.172 410.331 346.274 412.983 346.274C415.609 346.274 417.611 348.172 417.611 351.11C417.611 354.048 415.609 355.972 412.983 355.972ZM440.366 358.208C445.904 358.208 450.012 354.256 450.012 348.9C450.012 343.544 445.904 339.592 440.366 339.592C434.776 339.592 430.668 343.57 430.668 348.9C430.668 354.23 434.776 358.208 440.366 358.208ZM440.366 355.894C436.284 355.894 433.268 352.93 433.268 348.9C433.268 344.87 436.284 341.906 440.366 341.906C444.396 341.906 447.412 344.87 447.412 348.9C447.412 352.93 444.396 355.894 440.366 355.894ZM453.622 358H456.118V338.708H453.622V358ZM471.232 344.22V351.344C471.232 354.308 469.568 355.92 466.968 355.92C464.602 355.92 463.25 354.568 463.25 351.864V344.22H460.754V352.15C460.754 356.206 463.12 358.156 466.682 358.156C468.632 358.156 470.348 357.35 471.362 355.92V358H473.728V344.22H471.232ZM497.096 344.22L492.988 355.244L488.906 344.22H486.8L482.64 355.192L478.636 344.22H476.27L481.392 358H483.784L487.814 347.548L491.792 358H494.184L499.332 344.22H497.096ZM506.451 344.09C504.241 344.09 502.187 344.714 500.757 345.858L501.797 347.73C502.863 346.82 504.527 346.248 506.165 346.248C508.635 346.248 509.857 347.47 509.857 349.576V350.07H505.905C501.797 350.07 500.367 351.89 500.367 354.1C500.367 356.492 502.343 358.156 505.463 358.156C507.621 358.156 509.155 357.428 509.987 356.18V358H512.353V349.68C512.353 345.91 510.221 344.09 506.451 344.09ZM505.879 356.232C503.981 356.232 502.837 355.374 502.837 353.996C502.837 352.826 503.539 351.864 506.009 351.864H509.857V353.788C509.233 355.374 507.751 356.232 505.879 356.232ZM523.94 355.4C523.42 355.816 522.718 356.05 521.99 356.05C520.612 356.05 519.832 355.218 519.832 353.736V346.274H523.784V344.22H519.832V341.204H517.336V344.22H514.996V346.274H517.336V353.84C517.336 356.622 518.922 358.156 521.704 358.156C522.822 358.156 523.966 357.844 524.72 357.194L523.94 355.4ZM533.182 358.156C537.316 358.156 540.332 355.218 540.332 351.11C540.332 347.002 537.316 344.09 533.182 344.09C529.048 344.09 526.006 347.002 526.006 351.11C526.006 355.218 529.048 358.156 533.182 358.156ZM533.182 355.972C530.53 355.972 528.528 354.048 528.528 351.11C528.528 348.172 530.53 346.274 533.182 346.274C535.834 346.274 537.81 348.172 537.81 351.11C537.81 354.048 535.834 355.972 533.182 355.972ZM551.09 344.09C549.14 344.09 547.424 344.818 546.28 346.3V338.708H543.784V358H546.176V355.816C547.294 357.376 549.062 358.156 551.09 358.156C555.12 358.156 558.058 355.322 558.058 351.11C558.058 346.898 555.12 344.09 551.09 344.09ZM550.882 355.972C548.256 355.972 546.254 354.048 546.254 351.11C546.254 348.172 548.256 346.274 550.882 346.274C553.534 346.274 555.536 348.172 555.536 351.11C555.536 354.048 553.534 355.972 550.882 355.972ZM562.755 341.568C563.743 341.568 564.445 340.84 564.445 339.904C564.445 339.02 563.717 338.318 562.755 338.318C561.793 338.318 561.065 339.046 561.065 339.956C561.065 340.866 561.793 341.568 562.755 341.568ZM561.507 358H564.003V344.22H561.507V358ZM569.367 358.156C570.303 358.156 571.083 357.402 571.083 356.362C571.083 355.322 570.303 354.594 569.367 354.594C568.405 354.594 567.599 355.322 567.599 356.362C567.599 357.402 568.405 358.156 569.367 358.156ZM574.826 338.552C573.838 338.552 573.084 339.28 573.084 340.32C573.084 341.1 573.526 341.698 574.176 341.932L573.214 345.806H574.852L576.1 342.166C576.438 341.204 576.516 340.814 576.516 340.32C576.516 339.306 575.814 338.552 574.826 338.552ZM579.74 338.552C578.752 338.552 577.998 339.28 577.998 340.32C577.998 341.1 578.44 341.698 579.09 341.932L578.128 345.806H579.766L581.014 342.166C581.352 341.204 581.43 340.814 581.43 340.32C581.43 339.306 580.728 338.552 579.74 338.552Z" fill="#94A2B3"/>
<defs>
<filter id="filter0_d_24_7" x="26.1463" y="56.1463" width="783.707" height="468.707" filterUnits="userSpaceOnUse" color-interpolation-filters="sRGB">
<feFlood flood-opacity="0" result="BackgroundImageFix"/>
<feColorMatrix in="SourceAlpha" type="matrix" values="0 0 0 0 0 0 0 0 0 0 0 0 0 0 0 0 0 0 127 0" result="hardAlpha"/>
<feOffset dy="18"/>
<feGaussianBlur stdDeviation="26.4269"/>
<feColorMatrix type="matrix" values="0 0 0 0 0.845 0 0 0 0 0.892895 0 0 0 0 0.975 0 0 0 0.5 0"/>
<feBlend mode="normal" in2="BackgroundImageFix" result="effect1_dropShadow_24_7"/>
<feBlend mode="normal" in="SourceGraphic" in2="effect1_dropShadow_24_7" result="shape"/>
</filter>
<filter id="filter1_d_24_7" x="0.146282" y="0.146282" width="835.707" height="496.707" filterUnits="userSpaceOnUse" color-interpolation-filters="sRGB">
<feFlood flood-opacity="0" result="BackgroundImageFix"/>
<feColorMatrix in="SourceAlpha" type="matrix" values="0 0 0 0 0 0 0 0 0 0 0 0 0 0 0 0 0 0 127 0" result="hardAlpha"/>
<feOffset dy="18"/>
<feGaussianBlur stdDeviation="26.4269"/>
<feColorMatrix type="matrix" values="0 0 0 0 0.845 0 0 0 0 0.892895 0 0 0 0 0.975 0 0 0 0.5 0"/>
<feBlend mode="normal" in2="BackgroundImageFix" result="effect1_dropShadow_24_7"/>
<feBlend mode="normal" in="SourceGraphic" in2="effect1_dropShadow_24_7" result="shape"/>
</filter>
</defs>
</svg>
